# MagicaVoxel @ Ephtracy

# group
o 

# material
mtllib Cabinet.mtl
usemtl palette

# normals
vn -1 0 0
vn 1 0 0
vn 0 0 1
vn 0 0 -1
vn 0 -1 0
vn 0 1 0

# texcoords
vt 0.939453 0.5
vt 0.943359 0.5
vt 0.955078 0.5

# verts
v -0.5 0 0.4
v -0.5 0 -0.5
v -0.5 0.3 -0.1
v -0.5 0.3 -0.3
v -0.5 0.4 0
v -0.5 0.4 -0.1
v -0.5 0.6 0
v -0.5 0.6 -0.1
v -0.5 0.7 -0.1
v -0.5 0.7 -0.2
v -0.5 0.8 -0.2
v -0.5 0.8 -0.3
v -0.5 1 0.4
v -0.5 1 -0.5
v -0.2 0.3 0.5
v -0.2 0.3 0.4
v -0.2 0.4 0.5
v -0.2 0.4 0.4
v -0.2 0.7 0.5
v -0.2 0.7 0.4
v -0.2 0.8 0.5
v -0.2 0.8 0.4
v 0.2 0.3 0.5
v 0.2 0.3 0.4
v 0.2 0.4 0.5
v 0.2 0.4 0.4
v 0.2 0.7 0.5
v 0.2 0.7 0.4
v 0.2 0.8 0.5
v 0.2 0.8 0.4
v 0.5 0 0.4
v 0.5 0 -0.5
v 0.5 0.2 0.3
v 0.5 0.2 0.1
v 0.5 0.3 0.1
v 0.5 0.3 0
v 0.5 0.3 -0.2
v 0.5 0.3 -0.4
v 0.5 0.5 0.3
v 0.5 0.5 0
v 0.5 0.7 -0.3
v 0.5 0.7 -0.4
v 0.5 0.8 -0.2
v 0.5 0.8 -0.3
v 0.5 1 0.4
v 0.5 1 -0.5
v -0.2 0.3 0.5
v -0.2 0.4 0.5
v -0.2 0.7 0.5
v -0.2 0.8 0.5
v 0.2 0.3 0.5
v 0.2 0.4 0.5
v 0.2 0.7 0.5
v 0.2 0.8 0.5
v -0.5 0 0.4
v -0.5 1 0.4
v -0.4 0.1 0.4
v -0.4 0.5 0.4
v -0.4 0.6 0.4
v -0.4 0.9 0.4
v -0.2 0.3 0.4
v -0.2 0.4 0.4
v -0.2 0.7 0.4
v -0.2 0.8 0.4
v 0.2 0.3 0.4
v 0.2 0.4 0.4
v 0.2 0.7 0.4
v 0.2 0.8 0.4
v 0.4 0.1 0.4
v 0.4 0.5 0.4
v 0.4 0.6 0.4
v 0.4 0.9 0.4
v 0.5 0 0.4
v 0.5 1 0.4
v -0.5 0 -0.5
v -0.5 1 -0.5
v -0.1 0.3 -0.5
v -0.1 0.5 -0.5
v 0 0.2 -0.5
v 0 0.3 -0.5
v 0 0.5 -0.5
v 0 0.6 -0.5
v 0.2 0.2 -0.5
v 0.2 0.4 -0.5
v 0.3 0.4 -0.5
v 0.3 0.6 -0.5
v 0.5 0 -0.5
v 0.5 1 -0.5
v -0.5 0 0.4
v 0.5 0 0.4
v -0.5 0 -0.5
v 0.5 0 -0.5
v -0.2 0.3 0.5
v 0.2 0.3 0.5
v -0.2 0.3 0.4
v 0.2 0.3 0.4
v -0.2 0.7 0.5
v 0.2 0.7 0.5
v -0.2 0.7 0.4
v 0.2 0.7 0.4
v -0.2 0.4 0.5
v 0.2 0.4 0.5
v -0.2 0.4 0.4
v 0.2 0.4 0.4
v -0.2 0.8 0.5
v 0.2 0.8 0.5
v -0.2 0.8 0.4
v 0.2 0.8 0.4
v -0.5 1 0.4
v 0.5 1 0.4
v -0.2 1 0.3
v 0 1 0.3
v -0.3 1 0.2
v -0.2 1 0.2
v 0 1 0.2
v 0.1 1 0.2
v 0 1 0
v 0.1 1 0
v -0.1 1 -0.1
v 0 1 -0.1
v 0.2 1 -0.1
v 0.4 1 -0.1
v -0.3 1 -0.2
v -0.2 1 -0.2
v -0.2 1 -0.3
v -0.1 1 -0.3
v 0.2 1 -0.3
v 0.4 1 -0.3
v -0.5 1 -0.5
v 0.5 1 -0.5

# faces
f 3/2/1 2/2/1 1/2/1
f 4/2/1 2/2/1 3/2/1
f 5/2/1 3/2/1 1/2/1
f 6/3/1 4/3/1 3/3/1
f 6/2/1 3/2/1 5/2/1
f 7/2/1 5/2/1 1/2/1
f 7/3/1 6/3/1 5/3/1
f 8/3/1 4/3/1 6/3/1
f 8/3/1 6/3/1 7/3/1
f 9/2/1 8/2/1 7/2/1
f 9/3/1 4/3/1 8/3/1
f 10/3/1 4/3/1 9/3/1
f 11/2/1 10/2/1 9/2/1
f 11/3/1 4/3/1 10/3/1
f 12/2/1 2/2/1 4/2/1
f 12/3/1 4/3/1 11/3/1
f 13/2/1 11/2/1 9/2/1
f 13/2/1 7/2/1 1/2/1
f 13/2/1 12/2/1 11/2/1
f 13/2/1 9/2/1 7/2/1
f 14/2/1 2/2/1 12/2/1
f 14/2/1 12/2/1 13/2/1
f 17/2/1 16/2/1 15/2/1
f 18/2/1 16/2/1 17/2/1
f 21/2/1 20/2/1 19/2/1
f 22/2/1 20/2/1 21/2/1
f 23/2/2 24/2/2 25/2/2
f 25/2/2 24/2/2 26/2/2
f 27/2/2 28/2/2 29/2/2
f 29/2/2 28/2/2 30/2/2
f 31/2/2 32/2/2 33/2/2
f 33/2/2 32/2/2 34/2/2
f 33/3/2 34/3/2 35/3/2
f 34/2/2 32/2/2 35/2/2
f 35/2/2 32/2/2 36/2/2
f 36/2/2 32/2/2 37/2/2
f 37/2/2 32/2/2 38/2/2
f 31/2/2 33/2/2 39/2/2
f 33/3/2 35/3/2 39/3/2
f 35/3/2 36/3/2 39/3/2
f 36/2/2 37/2/2 40/2/2
f 39/3/2 36/3/2 40/3/2
f 37/3/2 38/3/2 41/3/2
f 38/2/2 32/2/2 42/2/2
f 41/3/2 38/3/2 42/3/2
f 37/3/2 41/3/2 43/3/2
f 40/2/2 37/2/2 43/2/2
f 39/2/2 40/2/2 43/2/2
f 41/2/2 42/2/2 44/2/2
f 43/3/2 41/3/2 44/3/2
f 39/2/2 43/2/2 45/2/2
f 31/2/2 39/2/2 45/2/2
f 43/2/2 44/2/2 45/2/2
f 42/2/2 32/2/2 46/2/2
f 45/2/2 44/2/2 46/2/2
f 44/2/2 42/2/2 46/2/2
f 51/2/3 48/2/3 47/2/3
f 52/2/3 48/2/3 51/2/3
f 53/2/3 50/2/3 49/2/3
f 54/2/3 50/2/3 53/2/3
f 57/2/3 56/2/3 55/2/3
f 58/2/3 56/2/3 57/2/3
f 59/2/3 56/2/3 58/2/3
f 60/2/3 56/2/3 59/2/3
f 61/1/3 58/1/3 57/1/3
f 62/1/3 58/1/3 61/1/3
f 63/1/3 60/1/3 59/1/3
f 64/1/3 60/1/3 63/1/3
f 65/1/3 61/1/3 57/1/3
f 66/1/3 58/1/3 62/1/3
f 67/1/3 63/1/3 59/1/3
f 68/1/3 60/1/3 64/1/3
f 69/2/3 57/2/3 55/2/3
f 69/1/3 65/1/3 57/1/3
f 69/1/3 66/1/3 65/1/3
f 70/2/3 59/2/3 58/2/3
f 70/1/3 66/1/3 69/1/3
f 70/1/3 58/1/3 66/1/3
f 71/1/3 68/1/3 67/1/3
f 71/2/3 59/2/3 70/2/3
f 71/1/3 67/1/3 59/1/3
f 72/2/3 56/2/3 60/2/3
f 72/1/3 68/1/3 71/1/3
f 72/1/3 60/1/3 68/1/3
f 73/2/3 70/2/3 69/2/3
f 73/2/3 71/2/3 70/2/3
f 73/2/3 72/2/3 71/2/3
f 73/2/3 69/2/3 55/2/3
f 74/2/3 56/2/3 72/2/3
f 74/2/3 72/2/3 73/2/3
f 75/2/4 76/2/4 77/2/4
f 77/2/4 76/2/4 78/2/4
f 75/2/4 77/2/4 79/2/4
f 77/3/4 78/3/4 80/3/4
f 79/2/4 77/2/4 80/2/4
f 78/2/4 76/2/4 81/2/4
f 80/3/4 78/3/4 81/3/4
f 81/2/4 76/2/4 82/2/4
f 79/3/4 80/3/4 83/3/4
f 75/2/4 79/2/4 83/2/4
f 81/3/4 82/3/4 83/3/4
f 80/3/4 81/3/4 83/3/4
f 83/3/4 82/3/4 84/3/4
f 83/2/4 84/2/4 85/2/4
f 84/3/4 82/3/4 85/3/4
f 82/2/4 76/2/4 86/2/4
f 85/3/4 82/3/4 86/3/4
f 83/2/4 85/2/4 87/2/4
f 75/2/4 83/2/4 87/2/4
f 85/2/4 86/2/4 87/2/4
f 86/2/4 76/2/4 88/2/4
f 87/2/4 86/2/4 88/2/4
f 91/2/5 90/2/5 89/2/5
f 92/2/5 90/2/5 91/2/5
f 95/2/5 94/2/5 93/2/5
f 96/2/5 94/2/5 95/2/5
f 99/2/5 98/2/5 97/2/5
f 100/2/5 98/2/5 99/2/5
f 101/2/6 102/2/6 103/2/6
f 103/2/6 102/2/6 104/2/6
f 105/2/6 106/2/6 107/2/6
f 107/2/6 106/2/6 108/2/6
f 109/2/6 110/2/6 111/2/6
f 111/2/6 110/2/6 112/2/6
f 109/2/6 111/2/6 113/2/6
f 111/3/6 112/3/6 114/3/6
f 113/2/6 111/2/6 114/2/6
f 112/2/6 110/2/6 115/2/6
f 114/3/6 112/3/6 115/3/6
f 115/2/6 110/2/6 116/2/6
f 113/3/6 114/3/6 117/3/6
f 114/3/6 115/3/6 117/3/6
f 115/3/6 116/3/6 117/3/6
f 116/2/6 110/2/6 118/2/6
f 117/3/6 116/3/6 118/3/6
f 113/3/6 117/3/6 119/3/6
f 117/2/6 118/2/6 120/2/6
f 119/3/6 117/3/6 120/3/6
f 118/2/6 110/2/6 121/2/6
f 120/2/6 118/2/6 121/2/6
f 121/2/6 110/2/6 122/2/6
f 109/2/6 113/2/6 123/2/6
f 113/3/6 119/3/6 123/3/6
f 123/3/6 119/3/6 124/3/6
f 123/2/6 124/2/6 125/2/6
f 124/3/6 119/3/6 125/3/6
f 119/2/6 120/2/6 126/2/6
f 125/3/6 119/3/6 126/3/6
f 120/2/6 121/2/6 126/2/6
f 121/3/6 122/3/6 127/3/6
f 126/2/6 121/2/6 127/2/6
f 122/2/6 110/2/6 128/2/6
f 127/3/6 122/3/6 128/3/6
f 123/2/6 125/2/6 129/2/6
f 126/2/6 127/2/6 129/2/6
f 127/2/6 128/2/6 129/2/6
f 109/2/6 123/2/6 129/2/6
f 125/2/6 126/2/6 129/2/6
f 128/2/6 110/2/6 130/2/6
f 129/2/6 128/2/6 130/2/6
