# MagicaVoxel @ Ephtracy

# group
o 

# material
mtllib Table.mtl
usemtl palette

# normals
vn -1 0 0
vn 1 0 0
vn 0 0 1
vn 0 0 -1
vn 0 -1 0
vn 0 1 0

# texcoords
vt 0.939453 0.5
vt 0.943359 0.5
vt 0.947266 0.5

# verts
v -1 0.8 0.5
v -1 0.8 -0.5
v -1 1 0.5
v -1 1 -0.5
v -0.9 0 0.4
v -0.9 0 0.3
v -0.9 0 -0.3
v -0.9 0 -0.4
v -0.9 0.7 0.3
v -0.9 0.7 -0.3
v -0.9 0.8 0.4
v -0.9 0.8 -0.4
v -0.7 0.7 0.2
v -0.7 0.7 0
v -0.7 0.8 0.2
v -0.7 0.8 0
v -0.6 0.7 0
v -0.6 0.7 -0.2
v -0.6 0.8 0
v -0.6 0.8 -0.2
v -0.5 0.7 0.3
v -0.5 0.7 0.2
v -0.5 0.7 -0.2
v -0.5 0.7 -0.3
v -0.5 0.8 0.3
v -0.5 0.8 0.2
v -0.5 0.8 -0.2
v -0.5 0.8 -0.3
v -0.4 0.7 0.2
v -0.4 0.7 -0.2
v -0.4 0.8 0.2
v -0.4 0.8 -0.2
v 0 0.7 0.1
v 0 0.7 -0.1
v 0 0.8 0.1
v 0 0.8 -0.1
v 0 0.9 0.5
v 0 0.9 -0.5
v 0 1 0.5
v 0 1 -0.5
v 0.3 0.7 0.2
v 0.3 0.7 0.1
v 0.3 0.7 -0.1
v 0.3 0.7 -0.2
v 0.3 0.8 0.2
v 0.3 0.8 0.1
v 0.3 0.8 -0.1
v 0.3 0.8 -0.2
v 0.4 0.7 0.4
v 0.4 0.7 0.2
v 0.4 0.7 -0.2
v 0.4 0.7 -0.4
v 0.4 0.8 0.4
v 0.4 0.8 0.2
v 0.4 0.8 -0.2
v 0.4 0.8 -0.4
v 0.5 0.7 0.2
v 0.5 0.7 0
v 0.5 0.8 0.2
v 0.5 0.8 0
v 0.6 0.7 0.3
v 0.6 0.7 0.2
v 0.6 0.7 0
v 0.6 0.7 -0.2
v 0.6 0.8 0.3
v 0.6 0.8 0.2
v 0.6 0.8 0
v 0.6 0.8 -0.2
v 0.7 0.7 -0.2
v 0.7 0.7 -0.3
v 0.7 0.8 -0.2
v 0.7 0.8 -0.3
v 0.8 0 0.4
v 0.8 0 0.3
v 0.8 0 -0.3
v 0.8 0 -0.4
v 0.8 0.7 0.4
v 0.8 0.7 0.3
v 0.8 0.7 0.2
v 0.8 0.7 -0.2
v 0.8 0.7 -0.3
v 0.8 0.7 -0.4
v 0.8 0.8 0.2
v 0.8 0.8 -0.2
v -0.8 0 0.4
v -0.8 0 0.3
v -0.8 0 -0.3
v -0.8 0 -0.4
v -0.8 0.7 0.4
v -0.8 0.7 0.3
v -0.8 0.7 0.2
v -0.8 0.7 -0.3
v -0.8 0.7 -0.4
v -0.8 0.8 0.2
v -0.8 0.8 -0.3
v -0.6 0.7 0.3
v -0.6 0.7 0.2
v -0.6 0.7 0
v -0.6 0.8 0.3
v -0.6 0.8 0.2
v -0.6 0.8 0
v -0.5 0.7 0
v -0.5 0.7 -0.2
v -0.5 0.8 0
v -0.5 0.8 -0.2
v -0.4 0.7 0.4
v -0.4 0.7 0.2
v -0.4 0.7 -0.2
v -0.4 0.7 -0.4
v -0.4 0.8 0.4
v -0.4 0.8 0.2
v -0.4 0.8 -0.2
v -0.4 0.8 -0.4
v -0.3 0.7 0.2
v -0.3 0.7 0.1
v -0.3 0.7 -0.1
v -0.3 0.7 -0.2
v -0.3 0.8 0.2
v -0.3 0.8 0.1
v -0.3 0.8 -0.1
v -0.3 0.8 -0.2
v -0.1 0.7 0.1
v -0.1 0.7 -0.1
v -0.1 0.8 0.1
v -0.1 0.8 -0.1
v -0.1 0.9 0.5
v -0.1 0.9 -0.5
v -0.1 1 0.5
v -0.1 1 -0.5
v 0.4 0.7 0.2
v 0.4 0.7 -0.2
v 0.4 0.8 0.2
v 0.4 0.8 -0.2
v 0.5 0.7 0.3
v 0.5 0.7 0.2
v 0.5 0.7 -0.2
v 0.5 0.7 -0.3
v 0.5 0.8 0.3
v 0.5 0.8 0.2
v 0.5 0.8 -0.2
v 0.5 0.8 -0.3
v 0.6 0.7 0.2
v 0.6 0.7 0
v 0.6 0.8 0.2
v 0.6 0.8 0
v 0.7 0.7 0
v 0.7 0.7 -0.2
v 0.7 0.8 0
v 0.7 0.8 -0.2
v 0.9 0 0.4
v 0.9 0 0.3
v 0.9 0 -0.3
v 0.9 0 -0.4
v 0.9 0.7 0.3
v 0.9 0.7 -0.3
v 0.9 0.8 0.4
v 0.9 0.8 -0.4
v 1 0.8 0.5
v 1 0.8 -0.5
v 1 1 0.5
v 1 1 -0.5
v -1 0.8 0.5
v -1 1 0.5
v -0.1 0.9 0.5
v -0.1 1 0.5
v 0 0.9 0.5
v 0 1 0.5
v 1 0.8 0.5
v 1 1 0.5
v -0.9 0 0.4
v -0.9 0.8 0.4
v -0.8 0 0.4
v -0.8 0.7 0.4
v -0.4 0.7 0.4
v -0.4 0.8 0.4
v 0.4 0.7 0.4
v 0.4 0.8 0.4
v 0.8 0 0.4
v 0.8 0.7 0.4
v 0.9 0 0.4
v 0.9 0.8 0.4
v -0.4 0.7 0.2
v -0.4 0.8 0.2
v -0.3 0.7 0.2
v -0.3 0.8 0.2
v 0.3 0.7 0.2
v 0.3 0.8 0.2
v 0.4 0.7 0.2
v 0.4 0.8 0.2
v 0.5 0.7 0.2
v 0.5 0.8 0.2
v 0.6 0.7 0.2
v 0.6 0.8 0.2
v -0.3 0.7 0.1
v -0.3 0.8 0.1
v -0.1 0.7 0.1
v -0.1 0.8 0.1
v 0 0.7 0.1
v 0 0.8 0.1
v 0.3 0.7 0.1
v 0.3 0.8 0.1
v -0.6 0.7 0
v -0.6 0.8 0
v -0.5 0.7 0
v -0.5 0.8 0
v 0.6 0.7 0
v 0.6 0.8 0
v 0.7 0.7 0
v 0.7 0.8 0
v -0.5 0.7 -0.2
v -0.5 0.8 -0.2
v -0.4 0.7 -0.2
v -0.4 0.8 -0.2
v 0.4 0.7 -0.2
v 0.4 0.8 -0.2
v 0.5 0.7 -0.2
v 0.5 0.8 -0.2
v 0.7 0.7 -0.2
v 0.7 0.8 -0.2
v 0.8 0.7 -0.2
v 0.8 0.8 -0.2
v -0.9 0 -0.3
v -0.9 0.7 -0.3
v -0.8 0 -0.3
v -0.8 0.7 -0.3
v -0.8 0.8 -0.3
v -0.5 0.7 -0.3
v -0.5 0.8 -0.3
v 0.5 0.7 -0.3
v 0.5 0.8 -0.3
v 0.7 0.7 -0.3
v 0.7 0.8 -0.3
v 0.8 0 -0.3
v 0.8 0.7 -0.3
v 0.9 0 -0.3
v 0.9 0.7 -0.3
v -0.9 0 0.3
v -0.9 0.7 0.3
v -0.8 0 0.3
v -0.8 0.7 0.3
v -0.6 0.7 0.3
v -0.6 0.8 0.3
v -0.5 0.7 0.3
v -0.5 0.8 0.3
v 0.5 0.7 0.3
v 0.5 0.8 0.3
v 0.6 0.7 0.3
v 0.6 0.8 0.3
v 0.8 0 0.3
v 0.8 0.7 0.3
v 0.9 0 0.3
v 0.9 0.7 0.3
v -0.8 0.7 0.2
v -0.8 0.8 0.2
v -0.7 0.7 0.2
v -0.7 0.8 0.2
v -0.5 0.7 0.2
v -0.5 0.8 0.2
v -0.4 0.7 0.2
v -0.4 0.8 0.2
v 0.4 0.7 0.2
v 0.4 0.8 0.2
v 0.5 0.7 0.2
v 0.5 0.8 0.2
v 0.6 0.7 0.2
v 0.6 0.8 0.2
v 0.8 0.7 0.2
v 0.8 0.8 0.2
v -0.7 0.7 0
v -0.7 0.8 0
v -0.6 0.7 0
v -0.6 0.8 0
v 0.5 0.7 0
v 0.5 0.8 0
v 0.6 0.7 0
v 0.6 0.8 0
v -0.3 0.7 -0.1
v -0.3 0.8 -0.1
v -0.1 0.7 -0.1
v -0.1 0.8 -0.1
v 0 0.7 -0.1
v 0 0.8 -0.1
v 0.3 0.7 -0.1
v 0.3 0.8 -0.1
v -0.6 0.7 -0.2
v -0.6 0.8 -0.2
v -0.5 0.7 -0.2
v -0.5 0.8 -0.2
v -0.4 0.7 -0.2
v -0.4 0.8 -0.2
v -0.3 0.7 -0.2
v -0.3 0.8 -0.2
v 0.3 0.7 -0.2
v 0.3 0.8 -0.2
v 0.4 0.7 -0.2
v 0.4 0.8 -0.2
v 0.6 0.7 -0.2
v 0.6 0.8 -0.2
v 0.7 0.7 -0.2
v 0.7 0.8 -0.2
v -0.9 0 -0.4
v -0.9 0.8 -0.4
v -0.8 0 -0.4
v -0.8 0.7 -0.4
v -0.4 0.7 -0.4
v -0.4 0.8 -0.4
v 0.4 0.7 -0.4
v 0.4 0.8 -0.4
v 0.8 0 -0.4
v 0.8 0.7 -0.4
v 0.9 0 -0.4
v 0.9 0.8 -0.4
v -1 0.8 -0.5
v -1 1 -0.5
v -0.1 0.9 -0.5
v -0.1 1 -0.5
v 0 0.9 -0.5
v 0 1 -0.5
v 1 0.8 -0.5
v 1 1 -0.5
v -0.9 0 0.4
v -0.8 0 0.4
v 0.8 0 0.4
v 0.9 0 0.4
v -0.9 0 0.3
v -0.8 0 0.3
v 0.8 0 0.3
v 0.9 0 0.3
v -0.9 0 -0.3
v -0.8 0 -0.3
v 0.8 0 -0.3
v 0.9 0 -0.3
v -0.9 0 -0.4
v -0.8 0 -0.4
v 0.8 0 -0.4
v 0.9 0 -0.4
v -0.8 0.7 0.4
v -0.4 0.7 0.4
v 0.4 0.7 0.4
v 0.8 0.7 0.4
v -0.9 0.7 0.3
v -0.8 0.7 0.3
v -0.6 0.7 0.3
v -0.5 0.7 0.3
v 0.5 0.7 0.3
v 0.6 0.7 0.3
v 0.8 0.7 0.3
v 0.9 0.7 0.3
v -0.8 0.7 0.2
v -0.7 0.7 0.2
v -0.6 0.7 0.2
v -0.5 0.7 0.2
v -0.4 0.7 0.2
v -0.3 0.7 0.2
v 0.3 0.7 0.2
v 0.4 0.7 0.2
v 0.5 0.7 0.2
v 0.6 0.7 0.2
v 0.8 0.7 0.2
v -0.3 0.7 0.1
v -0.1 0.7 0.1
v 0 0.7 0.1
v 0.3 0.7 0.1
v -0.7 0.7 0
v -0.6 0.7 0
v -0.5 0.7 0
v 0.5 0.7 0
v 0.6 0.7 0
v 0.7 0.7 0
v -0.3 0.7 -0.1
v -0.1 0.7 -0.1
v 0 0.7 -0.1
v 0.3 0.7 -0.1
v -0.6 0.7 -0.2
v -0.5 0.7 -0.2
v -0.4 0.7 -0.2
v -0.3 0.7 -0.2
v 0.3 0.7 -0.2
v 0.4 0.7 -0.2
v 0.5 0.7 -0.2
v 0.6 0.7 -0.2
v 0.7 0.7 -0.2
v 0.8 0.7 -0.2
v -0.9 0.7 -0.3
v -0.8 0.7 -0.3
v -0.5 0.7 -0.3
v 0.5 0.7 -0.3
v 0.7 0.7 -0.3
v 0.8 0.7 -0.3
v 0.9 0.7 -0.3
v -0.8 0.7 -0.4
v -0.4 0.7 -0.4
v 0.4 0.7 -0.4
v 0.8 0.7 -0.4
v -1 0.8 0.5
v 1 0.8 0.5
v -0.9 0.8 0.4
v -0.4 0.8 0.4
v 0.4 0.8 0.4
v 0.9 0.8 0.4
v -0.6 0.8 0.3
v -0.5 0.8 0.3
v 0.5 0.8 0.3
v 0.6 0.8 0.3
v -0.8 0.8 0.2
v -0.7 0.8 0.2
v -0.6 0.8 0.2
v -0.5 0.8 0.2
v -0.4 0.8 0.2
v -0.3 0.8 0.2
v 0.3 0.8 0.2
v 0.4 0.8 0.2
v 0.5 0.8 0.2
v 0.6 0.8 0.2
v 0.8 0.8 0.2
v -0.3 0.8 0.1
v -0.1 0.8 0.1
v 0 0.8 0.1
v 0.3 0.8 0.1
v -0.7 0.8 0
v -0.6 0.8 0
v -0.5 0.8 0
v 0.5 0.8 0
v 0.6 0.8 0
v 0.7 0.8 0
v -0.3 0.8 -0.1
v -0.1 0.8 -0.1
v 0 0.8 -0.1
v 0.3 0.8 -0.1
v -0.6 0.8 -0.2
v -0.5 0.8 -0.2
v -0.4 0.8 -0.2
v -0.3 0.8 -0.2
v 0.3 0.8 -0.2
v 0.4 0.8 -0.2
v 0.5 0.8 -0.2
v 0.6 0.8 -0.2
v 0.7 0.8 -0.2
v 0.8 0.8 -0.2
v -0.8 0.8 -0.3
v -0.5 0.8 -0.3
v 0.5 0.8 -0.3
v 0.7 0.8 -0.3
v -0.9 0.8 -0.4
v -0.4 0.8 -0.4
v 0.4 0.8 -0.4
v 0.9 0.8 -0.4
v -1 0.8 -0.5
v 1 0.8 -0.5
v -0.1 0.9 0.5
v 0 0.9 0.5
v -0.1 0.9 -0.5
v 0 0.9 -0.5
v -1 1 0.5
v -0.1 1 0.5
v 0 1 0.5
v 1 1 0.5
v -1 1 -0.5
v -0.1 1 -0.5
v 0 1 -0.5
v 1 1 -0.5

# faces
f 3/1/1 2/1/1 1/1/1
f 4/1/1 2/1/1 3/1/1
f 9/2/1 6/2/1 5/2/1
f 10/2/1 8/2/1 7/2/1
f 11/2/1 9/2/1 5/2/1
f 11/2/1 10/2/1 9/2/1
f 12/2/1 8/2/1 10/2/1
f 12/2/1 10/2/1 11/2/1
f 15/2/1 14/2/1 13/2/1
f 16/2/1 14/2/1 15/2/1
f 19/2/1 18/2/1 17/2/1
f 20/2/1 18/2/1 19/2/1
f 25/2/1 22/2/1 21/2/1
f 26/2/1 22/2/1 25/2/1
f 27/2/1 24/2/1 23/2/1
f 28/2/1 24/2/1 27/2/1
f 31/2/1 30/2/1 29/2/1
f 32/2/1 30/2/1 31/2/1
f 35/2/1 34/2/1 33/2/1
f 36/2/1 34/2/1 35/2/1
f 39/1/1 38/1/1 37/1/1
f 40/1/1 38/1/1 39/1/1
f 45/2/1 42/2/1 41/2/1
f 46/2/1 42/2/1 45/2/1
f 47/2/1 44/2/1 43/2/1
f 48/2/1 44/2/1 47/2/1
f 53/2/1 50/2/1 49/2/1
f 54/2/1 50/2/1 53/2/1
f 55/2/1 52/2/1 51/2/1
f 56/2/1 52/2/1 55/2/1
f 59/2/1 58/2/1 57/2/1
f 60/2/1 58/2/1 59/2/1
f 65/3/1 62/3/1 61/3/1
f 66/3/1 62/3/1 65/3/1
f 67/2/1 64/2/1 63/2/1
f 68/2/1 64/2/1 67/2/1
f 71/2/1 70/2/1 69/2/1
f 72/2/1 70/2/1 71/2/1
f 77/2/1 74/2/1 73/2/1
f 78/2/1 74/2/1 77/2/1
f 81/2/1 76/2/1 75/2/1
f 82/2/1 76/2/1 81/2/1
f 83/2/1 80/2/1 79/2/1
f 84/2/1 80/2/1 83/2/1
f 85/2/2 86/2/2 89/2/2
f 89/2/2 86/2/2 90/2/2
f 87/2/2 88/2/2 92/2/2
f 92/2/2 88/2/2 93/2/2
f 91/2/2 92/2/2 94/2/2
f 94/2/2 92/2/2 95/2/2
f 96/3/2 97/3/2 99/3/2
f 97/2/2 98/2/2 100/2/2
f 99/3/2 97/3/2 100/3/2
f 100/2/2 98/2/2 101/2/2
f 102/2/2 103/2/2 104/2/2
f 104/2/2 103/2/2 105/2/2
f 106/2/2 107/2/2 110/2/2
f 110/2/2 107/2/2 111/2/2
f 108/2/2 109/2/2 112/2/2
f 112/2/2 109/2/2 113/2/2
f 114/2/2 115/2/2 118/2/2
f 118/2/2 115/2/2 119/2/2
f 116/2/2 117/2/2 120/2/2
f 120/2/2 117/2/2 121/2/2
f 122/2/2 123/2/2 124/2/2
f 124/2/2 123/2/2 125/2/2
f 126/1/2 127/1/2 128/1/2
f 128/1/2 127/1/2 129/1/2
f 130/2/2 131/2/2 132/2/2
f 132/2/2 131/2/2 133/2/2
f 134/2/2 135/2/2 138/2/2
f 138/2/2 135/2/2 139/2/2
f 136/2/2 137/2/2 140/2/2
f 140/2/2 137/2/2 141/2/2
f 142/2/2 143/2/2 144/2/2
f 144/2/2 143/2/2 145/2/2
f 146/2/2 147/2/2 148/2/2
f 148/2/2 147/2/2 149/2/2
f 150/2/2 151/2/2 154/2/2
f 152/2/2 153/2/2 155/2/2
f 150/2/2 154/2/2 156/2/2
f 154/2/2 155/2/2 156/2/2
f 155/2/2 153/2/2 157/2/2
f 156/2/2 155/2/2 157/2/2
f 158/1/2 159/1/2 160/1/2
f 160/1/2 159/1/2 161/1/2
f 164/1/3 163/1/3 162/1/3
f 165/1/3 163/1/3 164/1/3
f 166/1/3 164/1/3 162/1/3
f 168/1/3 166/1/3 162/1/3
f 168/1/3 167/1/3 166/1/3
f 169/1/3 167/1/3 168/1/3
f 172/2/3 171/2/3 170/2/3
f 173/2/3 171/2/3 172/2/3
f 174/2/3 171/2/3 173/2/3
f 175/2/3 171/2/3 174/2/3
f 179/2/3 177/2/3 176/2/3
f 180/2/3 179/2/3 178/2/3
f 181/2/3 177/2/3 179/2/3
f 181/2/3 179/2/3 180/2/3
f 184/2/3 183/2/3 182/2/3
f 185/2/3 183/2/3 184/2/3
f 188/2/3 187/2/3 186/2/3
f 189/2/3 187/2/3 188/2/3
f 192/2/3 191/2/3 190/2/3
f 193/2/3 191/2/3 192/2/3
f 196/2/3 195/2/3 194/2/3
f 197/2/3 195/2/3 196/2/3
f 200/2/3 199/2/3 198/2/3
f 201/2/3 199/2/3 200/2/3
f 204/2/3 203/2/3 202/2/3
f 205/2/3 203/2/3 204/2/3
f 208/2/3 207/2/3 206/2/3
f 209/2/3 207/2/3 208/2/3
f 212/2/3 211/2/3 210/2/3
f 213/2/3 211/2/3 212/2/3
f 216/2/3 215/2/3 214/2/3
f 217/2/3 215/2/3 216/2/3
f 220/2/3 219/2/3 218/2/3
f 221/2/3 219/2/3 220/2/3
f 224/2/3 223/2/3 222/2/3
f 225/2/3 223/2/3 224/2/3
f 227/2/3 226/2/3 225/2/3
f 228/2/3 226/2/3 227/2/3
f 231/2/3 230/2/3 229/2/3
f 232/2/3 230/2/3 231/2/3
f 235/2/3 234/2/3 233/2/3
f 236/2/3 234/2/3 235/2/3
f 237/2/4 238/2/4 239/2/4
f 239/2/4 238/2/4 240/2/4
f 241/2/4 242/2/4 243/2/4
f 243/2/4 242/2/4 244/2/4
f 245/2/4 246/2/4 247/2/4
f 247/2/4 246/2/4 248/2/4
f 249/2/4 250/2/4 251/2/4
f 251/2/4 250/2/4 252/2/4
f 253/3/4 254/3/4 255/3/4
f 255/3/4 254/3/4 256/3/4
f 257/2/4 258/2/4 259/2/4
f 259/2/4 258/2/4 260/2/4
f 261/2/4 262/2/4 263/2/4
f 263/2/4 262/2/4 264/2/4
f 265/3/4 266/3/4 267/3/4
f 267/3/4 266/3/4 268/3/4
f 269/2/4 270/2/4 271/2/4
f 271/2/4 270/2/4 272/2/4
f 273/2/4 274/2/4 275/2/4
f 275/2/4 274/2/4 276/2/4
f 277/2/4 278/2/4 279/2/4
f 279/2/4 278/2/4 280/2/4
f 281/2/4 282/2/4 283/2/4
f 283/2/4 282/2/4 284/2/4
f 285/2/4 286/2/4 287/2/4
f 287/2/4 286/2/4 288/2/4
f 289/2/4 290/2/4 291/2/4
f 291/2/4 290/2/4 292/2/4
f 293/2/4 294/2/4 295/2/4
f 295/2/4 294/2/4 296/2/4
f 297/2/4 298/2/4 299/2/4
f 299/2/4 298/2/4 300/2/4
f 301/2/4 302/2/4 303/2/4
f 303/2/4 302/2/4 304/2/4
f 304/2/4 302/2/4 305/2/4
f 305/2/4 302/2/4 306/2/4
f 307/2/4 308/2/4 310/2/4
f 309/2/4 310/2/4 311/2/4
f 310/2/4 308/2/4 312/2/4
f 311/2/4 310/2/4 312/2/4
f 313/1/4 314/1/4 315/1/4
f 315/1/4 314/1/4 316/1/4
f 313/1/4 315/1/4 317/1/4
f 313/1/4 317/1/4 319/1/4
f 317/1/4 318/1/4 319/1/4
f 319/1/4 318/1/4 320/1/4
f 325/2/5 322/2/5 321/2/5
f 326/2/5 322/2/5 325/2/5
f 327/2/5 324/2/5 323/2/5
f 328/2/5 324/2/5 327/2/5
f 333/2/5 330/2/5 329/2/5
f 334/2/5 330/2/5 333/2/5
f 335/2/5 332/2/5 331/2/5
f 336/2/5 332/2/5 335/2/5
f 342/2/5 338/2/5 337/2/5
f 343/2/5 338/2/5 342/2/5
f 344/2/5 338/2/5 343/2/5
f 345/2/5 340/2/5 339/2/5
f 346/2/5 340/2/5 345/2/5
f 347/2/5 340/2/5 346/2/5
f 349/2/5 342/2/5 341/2/5
f 349/3/5 343/3/5 342/3/5
f 350/3/5 343/3/5 349/3/5
f 351/3/5 343/3/5 350/3/5
f 352/2/5 338/2/5 344/2/5
f 353/2/5 338/2/5 352/2/5
f 356/2/5 345/2/5 339/2/5
f 357/2/5 345/2/5 356/2/5
f 358/3/5 347/3/5 346/3/5
f 359/2/5 348/2/5 347/2/5
f 359/3/5 347/3/5 358/3/5
f 360/2/5 354/2/5 353/2/5
f 363/2/5 356/2/5 355/2/5
f 364/2/5 351/2/5 350/2/5
f 365/2/5 351/2/5 364/2/5
f 367/2/5 358/2/5 357/2/5
f 368/2/5 358/2/5 367/2/5
f 370/2/5 361/2/5 360/2/5
f 370/2/5 360/2/5 353/2/5
f 371/2/5 361/2/5 370/2/5
f 372/2/5 363/2/5 362/2/5
f 373/2/5 356/2/5 363/2/5
f 373/2/5 363/2/5 372/2/5
f 374/2/5 366/2/5 365/2/5
f 375/2/5 366/2/5 374/2/5
f 376/2/5 370/2/5 353/2/5
f 377/2/5 370/2/5 376/2/5
f 378/2/5 356/2/5 373/2/5
f 379/2/5 356/2/5 378/2/5
f 381/2/5 369/2/5 368/2/5
f 382/2/5 369/2/5 381/2/5
f 383/2/5 348/2/5 359/2/5
f 384/2/5 349/2/5 341/2/5
f 385/2/5 349/2/5 384/2/5
f 386/2/5 376/2/5 375/2/5
f 387/2/5 380/2/5 379/2/5
f 388/2/5 383/2/5 382/2/5
f 389/2/5 348/2/5 383/2/5
f 389/2/5 383/2/5 388/2/5
f 390/2/5 348/2/5 389/2/5
f 391/2/5 386/2/5 385/2/5
f 392/2/5 376/2/5 386/2/5
f 392/2/5 386/2/5 391/2/5
f 393/2/5 387/2/5 379/2/5
f 393/2/5 388/2/5 387/2/5
f 393/2/5 389/2/5 388/2/5
f 394/2/5 389/2/5 393/2/5
f 397/1/5 396/1/5 395/1/5
f 398/1/5 396/1/5 397/1/5
f 399/1/5 396/1/5 398/1/5
f 400/1/5 396/1/5 399/1/5
f 407/1/5 402/1/5 401/1/5
f 408/1/5 402/1/5 407/1/5
f 409/1/5 399/1/5 398/1/5
f 410/1/5 399/1/5 409/1/5
f 411/1/5 399/1/5 410/1/5
f 412/1/5 399/1/5 411/1/5
f 413/1/5 404/1/5 403/1/5
f 414/1/5 404/1/5 413/1/5
f 416/1/5 411/1/5 410/1/5
f 417/1/5 411/1/5 416/1/5
f 418/1/5 411/1/5 417/1/5
f 419/1/5 411/1/5 418/1/5
f 420/1/5 406/1/5 405/1/5
f 421/1/5 408/1/5 407/1/5
f 421/1/5 409/1/5 408/1/5
f 422/1/5 409/1/5 421/1/5
f 423/1/5 413/1/5 412/1/5
f 424/1/5 415/1/5 414/1/5
f 425/1/5 415/1/5 424/1/5
f 427/1/5 418/1/5 417/1/5
f 428/1/5 418/1/5 427/1/5
f 430/1/5 421/1/5 420/1/5
f 431/1/5 409/1/5 422/1/5
f 432/1/5 409/1/5 431/1/5
f 433/1/5 429/1/5 428/1/5
f 433/1/5 427/1/5 426/1/5
f 433/1/5 428/1/5 427/1/5
f 434/1/5 429/1/5 433/1/5
f 435/1/5 423/1/5 412/1/5
f 435/1/5 424/1/5 423/1/5
f 436/1/5 424/1/5 435/1/5
f 437/1/5 424/1/5 436/1/5
f 438/1/5 415/1/5 425/1/5
f 439/1/5 415/1/5 438/1/5
f 440/1/5 420/1/5 405/1/5
f 440/1/5 430/1/5 420/1/5
f 440/1/5 431/1/5 430/1/5
f 441/1/5 431/1/5 440/1/5
f 442/1/5 438/1/5 437/1/5
f 442/1/5 437/1/5 436/1/5
f 443/1/5 438/1/5 442/1/5
f 444/1/5 397/1/5 395/1/5
f 445/1/5 434/1/5 433/1/5
f 445/1/5 433/1/5 432/1/5
f 445/1/5 435/1/5 434/1/5
f 446/1/5 435/1/5 445/1/5
f 447/1/5 396/1/5 400/1/5
f 448/1/5 446/1/5 445/1/5
f 448/1/5 447/1/5 446/1/5
f 448/1/5 445/1/5 444/1/5
f 448/1/5 444/1/5 395/1/5
f 449/1/5 396/1/5 447/1/5
f 449/1/5 447/1/5 448/1/5
f 450/1/6 451/1/6 452/1/6
f 452/1/6 451/1/6 453/1/6
f 454/1/6 455/1/6 458/1/6
f 458/1/6 455/1/6 459/1/6
f 456/1/6 457/1/6 460/1/6
f 460/1/6 457/1/6 461/1/6
