# MagicaVoxel @ Ephtracy

# group
o 

# material
mtllib Player_1.mtl
usemtl palette

# normals
vn -1 0 0
vn 1 0 0
vn 0 0 1
vn 0 0 -1
vn 0 -1 0
vn 0 1 0

# texcoords
vt 0.0332031 0.5
vt 0.306641 0.5
vt 0.369141 0.5
vt 0.783203 0.5
vt 0.970703 0.5
vt 0.974609 0.5
vt 0.978516 0.5
vt 0.982422 0.5
vt 0.986328 0.5
vt 0.990234 0.5
vt 0.994141 0.5

# verts
v -0.4 0.6 0.1
v -0.4 0.6 -0.2
v -0.4 0.6 -0.4
v -0.4 0.8 0.1
v -0.4 0.8 -0.1
v -0.4 0.8 -0.2
v -0.4 0.8 -0.4
v -0.4 1.1 0.1
v -0.4 1.1 -0.1
v -0.4 1.6 0.5
v -0.4 1.6 -0.1
v -0.4 1.6 -0.2
v -0.4 1.6 -0.4
v -0.4 1.7 0.5
v -0.4 1.7 -0.1
v -0.4 1.7 -0.2
v -0.4 1.7 -0.4
v -0.3 1.6 -0.1
v -0.3 1.6 -0.2
v -0.3 1.7 -0.1
v -0.3 1.7 -0.2
v -0.2 0.2 -0.2
v -0.2 0.2 -0.6
v -0.2 0.3 -0.2
v -0.2 0.3 -0.4
v -0.2 0.4 0.1
v -0.2 0.4 -0.2
v -0.2 0.4 -0.4
v -0.2 0.4 -0.5
v -0.2 0.4 -0.6
v -0.2 0.6 0.1
v -0.2 0.6 -0.2
v -0.2 0.6 -0.4
v -0.2 0.7 -0.4
v -0.2 0.7 -0.5
v -0.2 0.8 -0.1
v -0.2 0.8 -0.2
v -0.2 1.1 0.1
v -0.2 1.1 -0.1
v -0.2 1.1 -0.2
v -0.2 1.2 0.2
v -0.2 1.2 0.1
v -0.2 1.2 0
v -0.2 1.2 -0.2
v -0.2 1.3 0.1
v -0.2 1.3 0
v -0.2 1.4 0.1
v -0.2 1.4 0
v -0.2 1.5 0
v -0.2 1.5 -0.2
v -0.2 1.6 0.5
v -0.2 1.6 0.4
v -0.2 1.6 0.2
v -0.2 1.6 -0.2
v -0.2 1.7 0.5
v -0.2 1.7 0.4
v -0.2 1.7 0.3
v -0.2 1.7 -0.2
v -0.2 1.8 0.3
v -0.2 1.8 -0.2
v -0.1 1 0.4
v -0.1 1 0.2
v -0.1 1.1 0.2
v -0.1 1.1 0.1
v -0.1 1.2 0.2
v -0.1 1.2 0.1
v -0.1 1.2 -0.2
v -0.1 1.2 -0.3
v -0.1 1.3 0.4
v -0.1 1.3 0.3
v -0.1 1.3 -0.2
v -0.1 1.3 -0.3
v -0.1 1.6 0.3
v -0.1 1.6 0.2
v 0 1.6 -0.3
v 0 1.6 -0.4
v 0 1.7 -0.3
v 0 1.7 -0.4
v 0.1 0.1 0.4
v 0.1 0.1 0.2
v 0.1 0.2 0.2
v 0.1 0.2 -0.2
v 0.1 0.3 0.3
v 0.1 0.3 0.2
v 0.1 0.5 0.4
v 0.1 0.5 0.3
v 0.1 0.5 0.1
v 0.1 0.5 -0.2
v 0.1 1.6 0.5
v 0.1 1.6 0.4
v 0.1 1.7 0.5
v 0.1 1.7 0.4
v 0.2 0.8 -0.1
v 0.2 0.8 -0.2
v 0.2 1.1 -0.1
v 0.2 1.1 -0.2
v 0.3 0.6 -0.2
v 0.3 0.6 -0.4
v 0.3 0.8 -0.2
v 0.3 0.8 -0.4
v 0.3 1.6 0.5
v 0.3 1.6 0.4
v 0.3 1.6 -0.3
v 0.3 1.6 -0.4
v 0.3 1.7 0.5
v 0.3 1.7 0.4
v 0.3 1.7 -0.3
v 0.3 1.7 -0.4
v -0.3 1.6 0.5
v -0.3 1.6 0.4
v -0.3 1.7 0.5
v -0.3 1.7 0.4
v -0.2 0.7 -0.2
v -0.2 0.7 -0.4
v -0.2 0.8 -0.2
v -0.2 0.8 -0.4
v -0.2 1.6 -0.3
v -0.2 1.6 -0.4
v -0.2 1.7 -0.3
v -0.2 1.7 -0.4
v -0.1 0.8 -0.1
v -0.1 0.8 -0.2
v -0.1 1.1 -0.1
v -0.1 1.1 -0.2
v 0 0.2 -0.2
v 0 0.2 -0.6
v 0 0.3 -0.2
v 0 0.3 -0.4
v 0 0.4 0.1
v 0 0.4 -0.2
v 0 0.4 -0.4
v 0 0.4 -0.5
v 0 0.4 -0.6
v 0 0.5 0.1
v 0 0.5 -0.2
v 0 0.7 -0.2
v 0 0.7 -0.5
v 0 1.2 -0.2
v 0 1.2 -0.3
v 0 1.3 -0.2
v 0 1.3 -0.3
v 0 1.6 0.5
v 0 1.6 0.4
v 0 1.7 0.5
v 0 1.7 0.4
v 0.2 1 0.4
v 0.2 1 0.2
v 0.2 1.1 0.2
v 0.2 1.1 0.1
v 0.2 1.2 0.2
v 0.2 1.2 0.1
v 0.2 1.3 0.4
v 0.2 1.3 0.3
v 0.2 1.6 0.5
v 0.2 1.6 0.4
v 0.2 1.6 0.3
v 0.2 1.6 0.2
v 0.2 1.6 -0.3
v 0.2 1.6 -0.4
v 0.2 1.7 0.5
v 0.2 1.7 0.4
v 0.2 1.7 -0.3
v 0.2 1.7 -0.4
v 0.3 0.1 0.4
v 0.3 0.1 0.2
v 0.3 0.2 0.2
v 0.3 0.2 -0.2
v 0.3 0.3 0.3
v 0.3 0.3 0.2
v 0.3 0.5 0.4
v 0.3 0.5 0.3
v 0.3 0.5 0.1
v 0.3 0.6 0.1
v 0.3 0.6 -0.2
v 0.3 0.8 -0.1
v 0.3 0.8 -0.2
v 0.3 1.1 0.1
v 0.3 1.1 -0.1
v 0.3 1.1 -0.2
v 0.3 1.2 0.2
v 0.3 1.2 0.1
v 0.3 1.2 0
v 0.3 1.2 -0.2
v 0.3 1.3 0.1
v 0.3 1.3 0
v 0.3 1.4 0.1
v 0.3 1.4 0
v 0.3 1.5 0
v 0.3 1.5 -0.2
v 0.3 1.6 0.2
v 0.3 1.6 -0.2
v 0.3 1.7 0.3
v 0.3 1.7 -0.2
v 0.3 1.8 0.3
v 0.3 1.8 -0.2
v 0.4 1.6 0.2
v 0.4 1.6 0
v 0.4 1.7 0.2
v 0.4 1.7 0
v 0.5 0.6 0.1
v 0.5 0.6 -0.2
v 0.5 0.6 -0.4
v 0.5 0.8 0.1
v 0.5 0.8 -0.1
v 0.5 0.8 -0.2
v 0.5 0.8 -0.4
v 0.5 1.1 0.1
v 0.5 1.1 -0.1
v 0.5 1.6 0.5
v 0.5 1.6 0.2
v 0.5 1.6 0
v 0.5 1.6 -0.4
v 0.5 1.7 0.5
v 0.5 1.7 0.2
v 0.5 1.7 0
v 0.5 1.7 -0.4
v -0.4 1.6 0.5
v -0.4 1.7 0.5
v -0.3 1.6 0.5
v -0.3 1.7 0.5
v -0.2 1.6 0.5
v -0.2 1.7 0.5
v 0 1.6 0.5
v 0 1.7 0.5
v 0.1 1.6 0.5
v 0.1 1.7 0.5
v 0.2 1.6 0.5
v 0.2 1.7 0.5
v 0.3 1.6 0.5
v 0.3 1.7 0.5
v 0.5 1.6 0.5
v 0.5 1.7 0.5
v -0.3 1.6 0.4
v -0.3 1.7 0.4
v -0.2 1.6 0.4
v -0.2 1.7 0.4
v -0.1 1 0.4
v -0.1 1.3 0.4
v 0 1.6 0.4
v 0 1.7 0.4
v 0.1 0.1 0.4
v 0.1 0.5 0.4
v 0.1 1.6 0.4
v 0.1 1.7 0.4
v 0.2 1 0.4
v 0.2 1.3 0.4
v 0.2 1.6 0.4
v 0.2 1.7 0.4
v 0.3 0.1 0.4
v 0.3 0.5 0.4
v 0.3 1.6 0.4
v 0.3 1.7 0.4
v -0.2 1.7 0.3
v -0.2 1.8 0.3
v -0.1 1.3 0.3
v -0.1 1.6 0.3
v 0.2 1.3 0.3
v 0.2 1.6 0.3
v 0.3 1.7 0.3
v 0.3 1.8 0.3
v -0.2 1.2 0.2
v -0.2 1.6 0.2
v -0.1 1.2 0.2
v -0.1 1.6 0.2
v 0.2 1.2 0.2
v 0.2 1.6 0.2
v 0.3 1.2 0.2
v 0.3 1.6 0.2
v -0.4 0.6 0.1
v -0.4 0.8 0.1
v -0.4 1.1 0.1
v -0.2 0.4 0.1
v -0.2 0.6 0.1
v -0.2 0.8 0.1
v -0.2 1.1 0.1
v -0.2 1.2 0.1
v -0.1 1.1 0.1
v -0.1 1.2 0.1
v 0 0.4 0.1
v 0 0.5 0.1
v 0 0.8 0.1
v 0 1.1 0.1
v 0.1 0.5 0.1
v 0.1 0.8 0.1
v 0.1 1.1 0.1
v 0.2 1.1 0.1
v 0.2 1.2 0.1
v 0.3 0.5 0.1
v 0.3 0.6 0.1
v 0.3 0.8 0.1
v 0.3 1.1 0.1
v 0.3 1.2 0.1
v 0.5 0.6 0.1
v 0.5 0.8 0.1
v 0.5 1.1 0.1
v 0.4 1.6 0
v 0.4 1.7 0
v 0.5 1.6 0
v 0.5 1.7 0
v -0.4 1.6 -0.2
v -0.4 1.7 -0.2
v -0.3 1.6 -0.2
v -0.3 1.7 -0.2
v -0.2 0.2 -0.2
v -0.2 0.3 -0.2
v -0.2 0.4 -0.2
v 0 0.2 -0.2
v 0 0.3 -0.2
v 0 0.4 -0.2
v -0.1 1 0.2
v -0.1 1.1 0.2
v 0.1 0.1 0.2
v 0.1 0.2 0.2
v 0.2 1 0.2
v 0.2 1.1 0.2
v 0.3 0.1 0.2
v 0.3 0.2 0.2
v 0.4 1.6 0.2
v 0.4 1.7 0.2
v 0.5 1.6 0.2
v 0.5 1.7 0.2
v -0.4 0.8 -0.1
v -0.4 1.1 -0.1
v -0.4 1.6 -0.1
v -0.4 1.7 -0.1
v -0.3 1.6 -0.1
v -0.3 1.7 -0.1
v -0.2 0.8 -0.1
v -0.2 1.1 -0.1
v -0.1 0.8 -0.1
v -0.1 1.1 -0.1
v 0.2 0.8 -0.1
v 0.2 1.1 -0.1
v 0.3 0.8 -0.1
v 0.3 1.1 -0.1
v 0.5 0.8 -0.1
v 0.5 1.1 -0.1
v -0.2 0.7 -0.2
v -0.2 0.8 -0.2
v -0.2 1.1 -0.2
v -0.2 1.2 -0.2
v -0.2 1.5 -0.2
v -0.2 1.6 -0.2
v -0.2 1.7 -0.2
v -0.2 1.8 -0.2
v -0.1 0.8 -0.2
v -0.1 1.1 -0.2
v -0.1 1.2 -0.2
v -0.1 1.3 -0.2
v -0.1 1.4 -0.2
v -0.1 1.5 -0.2
v 0 0.5 -0.2
v 0 0.7 -0.2
v 0 1.2 -0.2
v 0 1.3 -0.2
v 0 1.4 -0.2
v 0 1.5 -0.2
v 0.1 0.2 -0.2
v 0.1 0.5 -0.2
v 0.1 1.4 -0.2
v 0.1 1.5 -0.2
v 0.2 0.8 -0.2
v 0.2 1.1 -0.2
v 0.2 1.2 -0.2
v 0.2 1.3 -0.2
v 0.2 1.4 -0.2
v 0.2 1.5 -0.2
v 0.3 0.2 -0.2
v 0.3 0.6 -0.2
v 0.3 0.8 -0.2
v 0.3 1.1 -0.2
v 0.3 1.2 -0.2
v 0.3 1.5 -0.2
v 0.3 1.6 -0.2
v 0.3 1.7 -0.2
v 0.3 1.8 -0.2
v -0.2 1.6 -0.3
v -0.2 1.7 -0.3
v -0.1 1.2 -0.3
v -0.1 1.3 -0.3
v 0 1.2 -0.3
v 0 1.3 -0.3
v 0 1.6 -0.3
v 0 1.7 -0.3
v 0.2 1.6 -0.3
v 0.2 1.7 -0.3
v 0.3 1.6 -0.3
v 0.3 1.7 -0.3
v -0.4 0.6 -0.4
v -0.4 0.8 -0.4
v -0.4 1.6 -0.4
v -0.4 1.7 -0.4
v -0.2 0.6 -0.4
v -0.2 0.7 -0.4
v -0.2 0.8 -0.4
v -0.2 1.6 -0.4
v -0.2 1.7 -0.4
v 0 1.6 -0.4
v 0 1.7 -0.4
v 0.2 1.6 -0.4
v 0.2 1.7 -0.4
v 0.3 0.6 -0.4
v 0.3 0.8 -0.4
v 0.3 1.6 -0.4
v 0.3 1.7 -0.4
v 0.5 0.6 -0.4
v 0.5 0.8 -0.4
v 0.5 1.6 -0.4
v 0.5 1.7 -0.4
v -0.2 0.4 -0.5
v -0.2 0.7 -0.5
v 0 0.4 -0.5
v 0 0.7 -0.5
v -0.2 0.2 -0.6
v -0.2 0.4 -0.6
v 0 0.2 -0.6
v 0 0.4 -0.6
v 0.1 0.1 0.4
v 0.3 0.1 0.4
v 0.1 0.1 0.2
v 0.3 0.1 0.2
v 0.1 0.2 0.2
v 0.3 0.2 0.2
v -0.2 0.2 -0.2
v 0 0.2 -0.2
v 0.1 0.2 -0.2
v 0.3 0.2 -0.2
v -0.2 0.2 -0.6
v 0 0.2 -0.6
v -0.2 0.4 0.1
v 0 0.4 0.1
v -0.2 0.4 -0.2
v 0 0.4 -0.2
v 0 0.5 0.1
v 0.1 0.5 0.1
v 0 0.5 -0.2
v 0.1 0.5 -0.2
v -0.4 0.6 0.1
v -0.2 0.6 0.1
v 0.3 0.6 0.1
v 0.5 0.6 0.1
v -0.4 0.6 -0.2
v -0.2 0.6 -0.2
v 0.3 0.6 -0.2
v 0.5 0.6 -0.2
v -0.4 0.6 -0.4
v -0.2 0.6 -0.4
v 0.3 0.6 -0.4
v 0.5 0.6 -0.4
v -0.1 1 0.4
v 0.2 1 0.4
v -0.1 1 0.2
v 0.2 1 0.2
v -0.1 1.1 0.2
v 0.2 1.1 0.2
v -0.1 1.1 0.1
v 0 1.1 0.1
v 0.1 1.1 0.1
v 0.2 1.1 0.1
v -0.1 1.1 -0.1
v 0.2 1.1 -0.1
v -0.1 1.1 -0.2
v 0.2 1.1 -0.2
v -0.2 1.2 0.2
v -0.1 1.2 0.2
v 0.2 1.2 0.2
v 0.3 1.2 0.2
v -0.2 1.2 0.1
v -0.1 1.2 0.1
v 0.2 1.2 0.1
v 0.3 1.2 0.1
v -0.1 1.2 -0.2
v 0 1.2 -0.2
v -0.1 1.2 -0.3
v 0 1.2 -0.3
v -0.4 1.6 0.5
v -0.3 1.6 0.5
v -0.2 1.6 0.5
v 0 1.6 0.5
v 0.1 1.6 0.5
v 0.2 1.6 0.5
v 0.3 1.6 0.5
v 0.5 1.6 0.5
v -0.3 1.6 0.4
v -0.2 1.6 0.4
v 0 1.6 0.4
v 0.1 1.6 0.4
v 0.2 1.6 0.4
v 0.3 1.6 0.4
v -0.1 1.6 0.3
v 0.2 1.6 0.3
v -0.2 1.6 0.2
v -0.1 1.6 0.2
v 0.2 1.6 0.2
v 0.3 1.6 0.2
v 0.4 1.6 0.2
v 0.5 1.6 0.2
v 0.4 1.6 0
v 0.5 1.6 0
v -0.4 1.6 -0.1
v -0.3 1.6 -0.1
v -0.4 1.6 -0.2
v -0.3 1.6 -0.2
v -0.2 1.6 -0.2
v 0.3 1.6 -0.2
v -0.2 1.6 -0.3
v 0 1.6 -0.3
v 0.2 1.6 -0.3
v 0.3 1.6 -0.3
v -0.4 1.6 -0.4
v -0.2 1.6 -0.4
v 0 1.6 -0.4
v 0.2 1.6 -0.4
v 0.3 1.6 -0.4
v 0.5 1.6 -0.4
v -0.2 0.4 -0.5
v 0 0.4 -0.5
v -0.2 0.4 -0.6
v 0 0.4 -0.6
v 0.1 0.5 0.4
v 0.3 0.5 0.4
v 0.1 0.5 0.3
v 0.3 0.5 0.3
v 0.1 0.5 0.1
v 0.3 0.5 0.1
v -0.2 0.7 -0.2
v 0 0.7 -0.2
v -0.2 0.7 -0.4
v -0.2 0.7 -0.5
v 0 0.7 -0.5
v -0.4 0.8 -0.1
v -0.2 0.8 -0.1
v -0.1 0.8 -0.1
v 0.2 0.8 -0.1
v 0.3 0.8 -0.1
v 0.5 0.8 -0.1
v -0.4 0.8 -0.2
v -0.2 0.8 -0.2
v -0.1 0.8 -0.2
v 0.2 0.8 -0.2
v 0.3 0.8 -0.2
v 0.5 0.8 -0.2
v -0.4 0.8 -0.4
v -0.2 0.8 -0.4
v 0.3 0.8 -0.4
v 0.5 0.8 -0.4
v -0.4 1.1 0.1
v -0.2 1.1 0.1
v 0.3 1.1 0.1
v 0.5 1.1 0.1
v -0.4 1.1 -0.1
v -0.2 1.1 -0.1
v 0.3 1.1 -0.1
v 0.5 1.1 -0.1
v -0.1 1.3 0.4
v 0.2 1.3 0.4
v -0.1 1.3 0.3
v 0.2 1.3 0.3
v -0.1 1.3 -0.2
v 0 1.3 -0.2
v -0.1 1.3 -0.3
v 0 1.3 -0.3
v -0.4 1.7 0.5
v -0.3 1.7 0.5
v -0.2 1.7 0.5
v 0 1.7 0.5
v 0.1 1.7 0.5
v 0.2 1.7 0.5
v 0.3 1.7 0.5
v 0.5 1.7 0.5
v -0.3 1.7 0.4
v -0.2 1.7 0.4
v 0 1.7 0.4
v 0.1 1.7 0.4
v 0.2 1.7 0.4
v 0.3 1.7 0.4
v -0.2 1.7 0.3
v 0.3 1.7 0.3
v 0.4 1.7 0.2
v 0.5 1.7 0.2
v 0.4 1.7 0
v 0.5 1.7 0
v -0.4 1.7 -0.1
v -0.3 1.7 -0.1
v -0.4 1.7 -0.2
v -0.3 1.7 -0.2
v -0.2 1.7 -0.2
v 0.3 1.7 -0.2
v -0.2 1.7 -0.3
v 0 1.7 -0.3
v 0.2 1.7 -0.3
v 0.3 1.7 -0.3
v -0.4 1.7 -0.4
v -0.2 1.7 -0.4
v 0 1.7 -0.4
v 0.2 1.7 -0.4
v 0.3 1.7 -0.4
v 0.5 1.7 -0.4
v -0.2 1.8 0.3
v 0.3 1.8 0.3
v -0.2 1.8 -0.2
v 0.3 1.8 -0.2

# faces
f 4/6/1 2/6/1 1/6/1
f 5/6/1 2/6/1 4/6/1
f 6/11/1 3/11/1 2/11/1
f 6/6/1 2/6/1 5/6/1
f 7/11/1 3/11/1 6/11/1
f 8/10/1 5/10/1 4/10/1
f 9/10/1 5/10/1 8/10/1
f 14/5/1 11/5/1 10/5/1
f 15/5/1 11/5/1 14/5/1
f 16/5/1 13/5/1 12/5/1
f 17/5/1 13/5/1 16/5/1
f 20/5/1 19/5/1 18/5/1
f 21/5/1 19/5/1 20/5/1
f 24/7/1 23/7/1 22/7/1
f 25/7/1 23/7/1 24/7/1
f 27/9/1 25/9/1 24/9/1
f 28/7/1 23/7/1 25/7/1
f 28/9/1 25/9/1 27/9/1
f 29/7/1 23/7/1 28/7/1
f 30/7/1 23/7/1 29/7/1
f 31/9/1 27/9/1 26/9/1
f 31/9/1 28/9/1 27/9/1
f 31/9/1 29/9/1 28/9/1
f 32/9/1 29/9/1 31/9/1
f 33/9/1 29/9/1 32/9/1
f 34/9/1 29/9/1 33/9/1
f 35/9/1 29/9/1 34/9/1
f 39/9/1 37/9/1 36/9/1
f 40/9/1 37/9/1 39/9/1
f 42/7/1 39/7/1 38/7/1
f 42/7/1 40/7/1 39/7/1
f 43/7/1 40/7/1 42/7/1
f 44/7/1 40/7/1 43/7/1
f 45/7/1 42/7/1 41/7/1
f 45/7/1 43/7/1 42/7/1
f 46/6/1 44/6/1 43/6/1
f 46/7/1 43/7/1 45/7/1
f 47/7/1 45/7/1 41/7/1
f 47/6/1 46/6/1 45/6/1
f 48/6/1 44/6/1 46/6/1
f 48/6/1 46/6/1 47/6/1
f 49/7/1 48/7/1 47/7/1
f 49/6/1 44/6/1 48/6/1
f 50/6/1 44/6/1 49/6/1
f 53/7/1 47/7/1 41/7/1
f 53/7/1 49/7/1 47/7/1
f 53/7/1 50/7/1 49/7/1
f 54/7/1 50/7/1 53/7/1
f 55/5/1 52/5/1 51/5/1
f 56/5/1 52/5/1 55/5/1
f 59/5/1 58/5/1 57/5/1
f 60/5/1 58/5/1 59/5/1
f 63/7/1 62/7/1 61/7/1
f 65/7/1 63/7/1 61/7/1
f 65/7/1 64/7/1 63/7/1
f 66/7/1 64/7/1 65/7/1
f 69/7/1 65/7/1 61/7/1
f 70/7/1 65/7/1 69/7/1
f 71/5/1 68/5/1 67/5/1
f 72/5/1 68/5/1 71/5/1
f 73/7/1 65/7/1 70/7/1
f 74/7/1 65/7/1 73/7/1
f 77/5/1 76/5/1 75/5/1
f 78/5/1 76/5/1 77/5/1
f 81/7/1 80/7/1 79/7/1
f 83/7/1 81/7/1 79/7/1
f 84/9/1 82/9/1 81/9/1
f 84/7/1 81/7/1 83/7/1
f 85/7/1 83/7/1 79/7/1
f 86/9/1 84/9/1 83/9/1
f 86/7/1 83/7/1 85/7/1
f 87/9/1 82/9/1 84/9/1
f 87/9/1 84/9/1 86/9/1
f 88/9/1 82/9/1 87/9/1
f 91/5/1 90/5/1 89/5/1
f 92/5/1 90/5/1 91/5/1
f 95/9/1 94/9/1 93/9/1
f 96/9/1 94/9/1 95/9/1
f 99/11/1 98/11/1 97/11/1
f 100/11/1 98/11/1 99/11/1
f 105/5/1 102/5/1 101/5/1
f 106/5/1 102/5/1 105/5/1
f 107/5/1 104/5/1 103/5/1
f 108/5/1 104/5/1 107/5/1
f 109/5/2 110/5/2 111/5/2
f 111/5/2 110/5/2 112/5/2
f 113/11/2 114/11/2 115/11/2
f 115/11/2 114/11/2 116/11/2
f 117/5/2 118/5/2 119/5/2
f 119/5/2 118/5/2 120/5/2
f 121/9/2 122/9/2 123/9/2
f 123/9/2 122/9/2 124/9/2
f 125/7/2 126/7/2 127/7/2
f 127/7/2 126/7/2 128/7/2
f 127/9/2 128/9/2 130/9/2
f 128/7/2 126/7/2 131/7/2
f 130/9/2 128/9/2 131/9/2
f 131/7/2 126/7/2 132/7/2
f 132/7/2 126/7/2 133/7/2
f 129/9/2 130/9/2 134/9/2
f 130/9/2 131/9/2 134/9/2
f 131/9/2 132/9/2 134/9/2
f 134/9/2 132/9/2 135/9/2
f 135/9/2 132/9/2 136/9/2
f 136/9/2 132/9/2 137/9/2
f 138/5/2 139/5/2 140/5/2
f 140/5/2 139/5/2 141/5/2
f 142/5/2 143/5/2 144/5/2
f 144/5/2 143/5/2 145/5/2
f 146/7/2 147/7/2 148/7/2
f 146/7/2 148/7/2 150/7/2
f 148/7/2 149/7/2 150/7/2
f 150/7/2 149/7/2 151/7/2
f 146/7/2 150/7/2 152/7/2
f 152/7/2 150/7/2 153/7/2
f 153/7/2 150/7/2 156/7/2
f 156/7/2 150/7/2 157/7/2
f 154/5/2 155/5/2 160/5/2
f 160/5/2 155/5/2 161/5/2
f 158/5/2 159/5/2 162/5/2
f 162/5/2 159/5/2 163/5/2
f 164/7/2 165/7/2 166/7/2
f 164/7/2 166/7/2 168/7/2
f 166/9/2 167/9/2 169/9/2
f 168/7/2 166/7/2 169/7/2
f 164/7/2 168/7/2 170/7/2
f 168/9/2 169/9/2 171/9/2
f 170/7/2 168/7/2 171/7/2
f 169/9/2 167/9/2 172/9/2
f 171/9/2 169/9/2 172/9/2
f 172/9/2 167/9/2 173/9/2
f 173/9/2 167/9/2 174/9/2
f 175/9/2 176/9/2 178/9/2
f 178/9/2 176/9/2 179/9/2
f 177/7/2 178/7/2 181/7/2
f 178/7/2 179/7/2 181/7/2
f 181/7/2 179/7/2 182/7/2
f 182/7/2 179/7/2 183/7/2
f 180/7/2 181/7/2 184/7/2
f 181/7/2 182/7/2 184/7/2
f 182/6/2 183/6/2 185/6/2
f 184/7/2 182/7/2 185/7/2
f 180/7/2 184/7/2 186/7/2
f 184/6/2 185/6/2 186/6/2
f 185/6/2 183/6/2 187/6/2
f 186/6/2 185/6/2 187/6/2
f 186/7/2 187/7/2 188/7/2
f 187/6/2 183/6/2 188/6/2
f 188/6/2 183/6/2 189/6/2
f 180/7/2 186/7/2 190/7/2
f 186/7/2 188/7/2 190/7/2
f 188/7/2 189/7/2 190/7/2
f 190/7/2 189/7/2 191/7/2
f 192/5/2 193/5/2 194/5/2
f 194/5/2 193/5/2 195/5/2
f 196/5/2 197/5/2 198/5/2
f 198/5/2 197/5/2 199/5/2
f 200/6/2 201/6/2 203/6/2
f 203/6/2 201/6/2 204/6/2
f 201/11/2 202/11/2 205/11/2
f 204/6/2 201/6/2 205/6/2
f 205/11/2 202/11/2 206/11/2
f 203/10/2 204/10/2 207/10/2
f 207/10/2 204/10/2 208/10/2
f 209/5/2 210/5/2 213/5/2
f 213/5/2 210/5/2 214/5/2
f 211/5/2 212/5/2 215/5/2
f 215/5/2 212/5/2 216/5/2
f 219/5/3 218/5/3 217/5/3
f 220/5/3 218/5/3 219/5/3
f 223/5/3 222/5/3 221/5/3
f 224/5/3 222/5/3 223/5/3
f 227/5/3 226/5/3 225/5/3
f 228/5/3 226/5/3 227/5/3
f 231/5/3 230/5/3 229/5/3
f 232/5/3 230/5/3 231/5/3
f 235/5/3 234/5/3 233/5/3
f 236/5/3 234/5/3 235/5/3
f 243/5/3 240/5/3 239/5/3
f 244/5/3 240/5/3 243/5/3
f 245/7/3 238/7/3 237/7/3
f 246/7/3 238/7/3 245/7/3
f 249/7/3 242/7/3 241/7/3
f 250/7/3 242/7/3 249/7/3
f 251/5/3 248/5/3 247/5/3
f 252/5/3 248/5/3 251/5/3
f 257/7/3 256/7/3 255/7/3
f 258/7/3 256/7/3 257/7/3
f 259/5/3 254/5/3 253/5/3
f 260/5/3 254/5/3 259/5/3
f 263/7/3 262/7/3 261/7/3
f 264/7/3 262/7/3 263/7/3
f 267/7/3 266/7/3 265/7/3
f 268/7/3 266/7/3 267/7/3
f 273/6/3 270/6/3 269/6/3
f 274/10/3 271/10/3 270/10/3
f 274/6/3 270/6/3 273/6/3
f 275/10/3 271/10/3 274/10/3
f 277/9/3 273/9/3 272/9/3
f 277/7/3 276/7/3 275/7/3
f 277/9/3 275/9/3 274/9/3
f 277/9/3 274/9/3 273/9/3
f 278/7/3 276/7/3 277/7/3
f 279/9/3 277/9/3 272/9/3
f 280/9/3 277/9/3 279/9/3
f 281/9/3 277/9/3 280/9/3
f 282/9/3 277/9/3 281/9/3
f 283/9/3 281/9/3 280/9/3
f 284/10/3 282/10/3 281/10/3
f 284/9/3 281/9/3 283/9/3
f 285/10/3 282/10/3 284/10/3
f 286/9/3 284/9/3 283/9/3
f 286/9/3 285/9/3 284/9/3
f 288/9/3 286/9/3 283/9/3
f 289/9/3 286/9/3 288/9/3
f 290/9/3 286/9/3 289/9/3
f 291/7/3 287/7/3 286/7/3
f 291/9/3 286/9/3 290/9/3
f 292/7/3 287/7/3 291/7/3
f 293/6/3 290/6/3 289/6/3
f 294/10/3 291/10/3 290/10/3
f 294/6/3 290/6/3 293/6/3
f 295/10/3 291/10/3 294/10/3
f 298/5/3 297/5/3 296/5/3
f 299/5/3 297/5/3 298/5/3
f 302/5/3 301/5/3 300/5/3
f 303/5/3 301/5/3 302/5/3
f 307/7/3 305/7/3 304/7/3
f 308/9/3 306/9/3 305/9/3
f 308/7/3 305/7/3 307/7/3
f 309/9/3 306/9/3 308/9/3
f 310/7/4 311/7/4 314/7/4
f 314/7/4 311/7/4 315/7/4
f 312/7/4 313/7/4 316/7/4
f 316/7/4 313/7/4 317/7/4
f 318/5/4 319/5/4 320/5/4
f 320/5/4 319/5/4 321/5/4
f 324/5/4 325/5/4 326/5/4
f 326/5/4 325/5/4 327/5/4
f 322/10/4 323/10/4 328/10/4
f 328/10/4 323/10/4 329/10/4
f 330/10/4 331/10/4 332/10/4
f 332/10/4 331/10/4 333/10/4
f 334/10/4 335/10/4 336/10/4
f 336/10/4 335/10/4 337/10/4
f 338/9/4 339/9/4 346/9/4
f 339/9/4 340/9/4 346/9/4
f 340/7/4 341/7/4 347/7/4
f 346/9/4 340/9/4 347/9/4
f 341/6/4 342/6/4 348/6/4
f 347/7/4 341/7/4 348/7/4
f 348/6/4 342/6/4 349/6/4
f 349/6/4 342/6/4 350/6/4
f 342/7/4 343/7/4 351/7/4
f 350/6/4 342/6/4 351/6/4
f 338/9/4 346/9/4 353/9/4
f 347/7/4 348/7/4 354/7/4
f 349/6/4 350/6/4 355/6/4
f 350/8/4 351/8/4 356/8/4
f 355/6/4 350/6/4 356/6/4
f 351/7/4 343/7/4 357/7/4
f 356/8/4 351/8/4 357/8/4
f 352/9/4 353/9/4 359/9/4
f 355/6/4 356/6/4 360/6/4
f 356/6/4 357/6/4 360/6/4
f 357/7/4 343/7/4 361/7/4
f 360/6/4 357/6/4 361/6/4
f 358/9/4 359/9/4 362/9/4
f 353/9/4 346/9/4 362/9/4
f 359/9/4 353/9/4 362/9/4
f 347/7/4 354/7/4 363/7/4
f 354/7/4 355/7/4 363/7/4
f 363/7/4 355/7/4 364/7/4
f 355/6/4 360/6/4 365/6/4
f 364/7/4 355/7/4 365/7/4
f 360/8/4 361/8/4 366/8/4
f 365/6/4 360/6/4 366/6/4
f 361/7/4 343/7/4 367/7/4
f 366/8/4 361/8/4 367/8/4
f 358/9/4 362/9/4 368/9/4
f 362/9/4 363/9/4 368/9/4
f 368/9/4 363/9/4 369/9/4
f 369/9/4 363/9/4 370/9/4
f 363/7/4 364/7/4 371/7/4
f 370/9/4 363/9/4 371/9/4
f 365/6/4 366/6/4 372/6/4
f 371/7/4 364/7/4 372/7/4
f 364/6/4 365/6/4 372/6/4
f 366/6/4 367/6/4 372/6/4
f 367/7/4 343/7/4 373/7/4
f 372/6/4 367/6/4 373/6/4
f 373/7/4 343/7/4 374/7/4
f 344/5/4 345/5/4 375/5/4
f 375/5/4 345/5/4 376/5/4
f 379/5/4 380/5/4 381/5/4
f 381/5/4 380/5/4 382/5/4
f 377/5/4 378/5/4 383/5/4
f 383/5/4 378/5/4 384/5/4
f 385/5/4 386/5/4 387/5/4
f 387/5/4 386/5/4 388/5/4
f 389/11/4 390/11/4 393/11/4
f 393/11/4 390/11/4 394/11/4
f 394/11/4 390/11/4 395/11/4
f 391/5/4 392/5/4 396/5/4
f 396/5/4 392/5/4 397/5/4
f 398/5/4 399/5/4 400/5/4
f 400/5/4 399/5/4 401/5/4
f 402/11/4 403/11/4 406/11/4
f 406/11/4 403/11/4 407/11/4
f 404/5/4 405/5/4 408/5/4
f 408/5/4 405/5/4 409/5/4
f 410/9/4 411/9/4 412/9/4
f 412/9/4 411/9/4 413/9/4
f 414/7/4 415/7/4 416/7/4
f 416/7/4 415/7/4 417/7/4
f 420/7/5 419/7/5 418/7/5
f 421/7/5 419/7/5 420/7/5
f 426/9/5 423/9/5 422/9/5
f 427/9/5 423/9/5 426/9/5
f 428/7/5 425/7/5 424/7/5
f 429/7/5 425/7/5 428/7/5
f 432/9/5 431/9/5 430/9/5
f 433/9/5 431/9/5 432/9/5
f 436/9/5 435/9/5 434/9/5
f 437/9/5 435/9/5 436/9/5
f 442/6/5 439/6/5 438/6/5
f 443/6/5 439/6/5 442/6/5
f 444/6/5 441/6/5 440/6/5
f 445/6/5 441/6/5 444/6/5
f 446/11/5 443/11/5 442/11/5
f 447/11/5 443/11/5 446/11/5
f 448/11/5 445/11/5 444/11/5
f 449/11/5 445/11/5 448/11/5
f 452/7/5 451/7/5 450/7/5
f 453/7/5 451/7/5 452/7/5
f 456/7/5 455/7/5 454/7/5
f 457/7/5 455/7/5 456/7/5
f 458/7/5 455/7/5 457/7/5
f 459/7/5 455/7/5 458/7/5
f 462/7/5 461/7/5 460/7/5
f 463/7/5 461/7/5 462/7/5
f 468/7/5 465/7/5 464/7/5
f 469/7/5 465/7/5 468/7/5
f 470/7/5 467/7/5 466/7/5
f 471/7/5 467/7/5 470/7/5
f 474/5/5 473/5/5 472/5/5
f 475/5/5 473/5/5 474/5/5
f 484/5/5 477/5/5 476/5/5
f 485/5/5 479/5/5 478/5/5
f 486/5/5 479/5/5 485/5/5
f 487/5/5 481/5/5 480/5/5
f 488/5/5 481/5/5 487/5/5
f 489/5/5 483/5/5 482/5/5
f 490/5/5 488/5/5 487/5/5
f 490/5/5 489/5/5 488/5/5
f 490/5/5 486/5/5 485/5/5
f 490/5/5 485/5/5 484/5/5
f 490/5/5 487/5/5 486/5/5
f 491/5/5 489/5/5 490/5/5
f 492/5/5 490/5/5 484/5/5
f 493/5/5 490/5/5 492/5/5
f 494/5/5 489/5/5 491/5/5
f 495/5/5 483/5/5 489/5/5
f 495/5/5 489/5/5 494/5/5
f 496/5/5 483/5/5 495/5/5
f 497/5/5 483/5/5 496/5/5
f 498/5/5 496/5/5 495/5/5
f 500/5/5 484/5/5 476/5/5
f 500/5/5 492/5/5 484/5/5
f 501/5/5 492/5/5 500/5/5
f 503/5/5 492/5/5 501/5/5
f 504/5/5 492/5/5 503/5/5
f 505/5/5 499/5/5 498/5/5
f 505/5/5 498/5/5 495/5/5
f 506/5/5 504/5/5 503/5/5
f 506/5/5 505/5/5 504/5/5
f 506/5/5 503/5/5 502/5/5
f 507/5/5 505/5/5 506/5/5
f 508/5/5 505/5/5 507/5/5
f 509/5/5 499/5/5 505/5/5
f 509/5/5 505/5/5 508/5/5
f 510/5/5 506/5/5 502/5/5
f 511/5/5 506/5/5 510/5/5
f 512/5/5 508/5/5 507/5/5
f 513/5/5 508/5/5 512/5/5
f 514/5/5 499/5/5 509/5/5
f 515/5/5 499/5/5 514/5/5
f 516/7/6 517/7/6 518/7/6
f 518/7/6 517/7/6 519/7/6
f 520/7/6 521/7/6 522/7/6
f 522/7/6 521/7/6 523/7/6
f 522/9/6 523/9/6 524/9/6
f 524/9/6 523/9/6 525/9/6
f 526/9/6 527/9/6 528/9/6
f 528/9/6 527/9/6 529/9/6
f 529/9/6 527/9/6 530/9/6
f 531/6/6 532/6/6 537/6/6
f 537/6/6 532/6/6 538/6/6
f 533/9/6 534/9/6 539/9/6
f 539/9/6 534/9/6 540/9/6
f 535/6/6 536/6/6 541/6/6
f 541/6/6 536/6/6 542/6/6
f 537/11/6 538/11/6 543/11/6
f 543/11/6 538/11/6 544/11/6
f 541/11/6 542/11/6 545/11/6
f 545/11/6 542/11/6 546/11/6
f 547/10/6 548/10/6 551/10/6
f 551/10/6 548/10/6 552/10/6
f 549/10/6 550/10/6 553/10/6
f 553/10/6 550/10/6 554/10/6
f 555/7/6 556/7/6 557/7/6
f 557/7/6 556/7/6 558/7/6
f 559/5/6 560/5/6 561/5/6
f 561/5/6 560/5/6 562/5/6
f 563/5/6 564/5/6 571/5/6
f 565/5/6 566/5/6 572/5/6
f 572/5/6 566/5/6 573/5/6
f 567/5/6 568/5/6 574/5/6
f 574/5/6 568/5/6 575/5/6
f 569/5/6 570/5/6 576/5/6
f 574/5/6 575/5/6 577/5/6
f 575/5/6 576/5/6 577/5/6
f 572/5/6 573/5/6 577/5/6
f 571/5/6 572/5/6 577/5/6
f 573/5/6 574/5/6 577/5/6
f 576/5/6 570/5/6 578/5/6
f 577/5/6 576/5/6 578/5/6
f 578/5/6 570/5/6 579/5/6
f 579/5/6 570/5/6 580/5/6
f 578/5/6 579/5/6 581/5/6
f 571/5/6 577/5/6 583/5/6
f 563/5/6 571/5/6 583/5/6
f 583/5/6 577/5/6 584/5/6
f 584/5/6 577/5/6 586/5/6
f 586/5/6 577/5/6 587/5/6
f 581/5/6 582/5/6 588/5/6
f 578/5/6 581/5/6 588/5/6
f 586/5/6 587/5/6 589/5/6
f 587/5/6 588/5/6 589/5/6
f 585/5/6 586/5/6 589/5/6
f 589/5/6 588/5/6 590/5/6
f 590/5/6 588/5/6 591/5/6
f 588/5/6 582/5/6 592/5/6
f 591/5/6 588/5/6 592/5/6
f 585/5/6 589/5/6 593/5/6
f 593/5/6 589/5/6 594/5/6
f 590/5/6 591/5/6 595/5/6
f 595/5/6 591/5/6 596/5/6
f 592/5/6 582/5/6 597/5/6
f 597/5/6 582/5/6 598/5/6
f 599/5/6 600/5/6 601/5/6
f 601/5/6 600/5/6 602/5/6
