# MagicaVoxel @ Ephtracy

# group
o 

# material
mtllib Lazer Gun.mtl
usemtl palette

# normals
vn -1 0 0
vn 1 0 0
vn 0 0 1
vn 0 0 -1
vn 0 -1 0
vn 0 1 0

# texcoords
vt 0.0683594 0.5
vt 0.259766 0.5
vt 0.263672 0.5
vt 0.275391 0.5
vt 0.994141 0.5

# verts
v -0.3 0.6 -0.3
v -0.3 0.6 -0.6
v -0.3 0.6 -0.9
v -0.3 0.6 -1.1
v -0.3 0.8 -0.3
v -0.3 0.8 -0.6
v -0.3 0.8 -0.9
v -0.3 0.8 -1.1
v -0.2 0.5 -0.3
v -0.2 0.5 -0.6
v -0.2 0.5 -0.9
v -0.2 0.5 -1.1
v -0.2 0.6 -0.3
v -0.2 0.6 -0.6
v -0.2 0.6 -0.9
v -0.2 0.6 -1.1
v -0.2 0.8 -0.3
v -0.2 0.8 -0.6
v -0.2 0.8 -0.9
v -0.2 0.8 -1.1
v -0.2 0.9 -0.3
v -0.2 0.9 -0.6
v -0.2 0.9 -0.9
v -0.2 0.9 -1.1
v -0.1 0.4 -0.3
v -0.1 0.4 -0.6
v -0.1 0.4 -0.9
v -0.1 0.4 -1.1
v -0.1 0.5 -0.3
v -0.1 0.5 -0.6
v -0.1 0.5 -0.9
v -0.1 0.5 -1.1
v -0.1 0.6 -0.6
v -0.1 0.6 -0.9
v -0.1 0.8 -0.6
v -0.1 0.8 -0.9
v -0.1 0.9 -0.3
v -0.1 0.9 -0.6
v -0.1 0.9 -0.9
v -0.1 0.9 -1.1
v -0.1 1 -0.3
v -0.1 1 -0.6
v -0.1 1 -0.9
v -0.1 1 -1.1
v 0.1 0.6 -0.7
v 0.1 0.6 -0.8
v 0.1 0.8 -0.7
v 0.1 0.8 -0.8
v 0.2 0.5 -0.4
v 0.2 0.5 -0.6
v 0.2 0.5 -0.9
v 0.2 0.5 -1
v 0.2 0.6 -0.4
v 0.2 0.6 -0.6
v 0.2 0.6 -0.7
v 0.2 0.6 -0.8
v 0.2 0.6 -0.9
v 0.2 0.6 -1
v 0.2 0.8 -0.4
v 0.2 0.8 -0.6
v 0.2 0.8 -0.7
v 0.2 0.8 -0.8
v 0.2 0.8 -0.9
v 0.2 0.8 -1
v 0.2 0.9 -0.4
v 0.2 0.9 -0.6
v 0.2 0.9 -0.9
v 0.2 0.9 -1
v 0.3 0.6 -0.4
v 0.3 0.6 -0.6
v 0.3 0.6 -0.9
v 0.3 0.6 -1
v 0.3 0.7 -1
v 0.3 0.8 -0.4
v 0.3 0.8 -0.6
v 0.3 0.8 -0.9
v 0.3 0.8 -1
v -0.2 0.6 -0.4
v -0.2 0.6 -0.6
v -0.2 0.6 -0.9
v -0.2 0.6 -1
v -0.2 0.7 -1
v -0.2 0.8 -0.4
v -0.2 0.8 -0.6
v -0.2 0.8 -0.9
v -0.2 0.8 -1
v -0.1 0.5 -0.4
v -0.1 0.5 -0.6
v -0.1 0.5 -0.9
v -0.1 0.5 -1
v -0.1 0.6 -0.4
v -0.1 0.6 -0.6
v -0.1 0.6 -0.9
v -0.1 0.6 -1
v -0.1 0.7 -0.7
v -0.1 0.7 -0.8
v -0.1 0.8 -0.4
v -0.1 0.8 -0.6
v -0.1 0.8 -0.7
v -0.1 0.8 -0.8
v -0.1 0.8 -0.9
v -0.1 0.8 -1
v -0.1 0.9 -0.4
v -0.1 0.9 -0.6
v -0.1 0.9 -0.9
v -0.1 0.9 -1
v 0 0.7 -0.7
v 0 0.7 -0.8
v 0 0.8 -0.7
v 0 0.8 -0.8
v 0.2 0.4 -0.3
v 0.2 0.4 -0.6
v 0.2 0.4 -0.9
v 0.2 0.4 -1.1
v 0.2 0.5 -0.3
v 0.2 0.5 -0.6
v 0.2 0.5 -0.9
v 0.2 0.5 -1.1
v 0.2 0.6 -0.6
v 0.2 0.6 -0.9
v 0.2 0.8 -0.6
v 0.2 0.8 -0.9
v 0.2 0.9 -0.3
v 0.2 0.9 -0.6
v 0.2 0.9 -0.9
v 0.2 0.9 -1.1
v 0.2 1 -0.3
v 0.2 1 -0.6
v 0.2 1 -0.9
v 0.2 1 -1.1
v 0.3 0.5 -0.3
v 0.3 0.5 -0.6
v 0.3 0.5 -0.9
v 0.3 0.5 -1.1
v 0.3 0.6 -0.3
v 0.3 0.6 -0.6
v 0.3 0.6 -0.9
v 0.3 0.6 -1.1
v 0.3 0.8 -0.3
v 0.3 0.8 -0.6
v 0.3 0.8 -0.9
v 0.3 0.8 -1.1
v 0.3 0.9 -0.3
v 0.3 0.9 -0.6
v 0.3 0.9 -0.9
v 0.3 0.9 -1.1
v 0.4 0.6 -0.3
v 0.4 0.6 -0.6
v 0.4 0.6 -0.9
v 0.4 0.6 -1.1
v 0.4 0.8 -0.3
v 0.4 0.8 -0.6
v 0.4 0.8 -0.9
v 0.4 0.8 -1.1
v -0.3 0.6 -0.3
v -0.3 0.8 -0.3
v -0.2 0.5 -0.3
v -0.2 0.6 -0.3
v -0.2 0.8 -0.3
v -0.2 0.9 -0.3
v -0.1 0.4 -0.3
v -0.1 0.5 -0.3
v -0.1 0.9 -0.3
v -0.1 1 -0.3
v 0.2 0.4 -0.3
v 0.2 0.5 -0.3
v 0.2 0.9 -0.3
v 0.2 1 -0.3
v 0.3 0.5 -0.3
v 0.3 0.6 -0.3
v 0.3 0.8 -0.3
v 0.3 0.9 -0.3
v 0.4 0.6 -0.3
v 0.4 0.8 -0.3
v -0.2 0.6 -0.6
v -0.2 0.8 -0.6
v -0.1 0.5 -0.6
v -0.1 0.6 -0.6
v -0.1 0.8 -0.6
v -0.1 0.9 -0.6
v 0.2 0.5 -0.6
v 0.2 0.6 -0.6
v 0.2 0.8 -0.6
v 0.2 0.9 -0.6
v 0.3 0.6 -0.6
v 0.3 0.8 -0.6
v -0.1 0.7 -0.7
v -0.1 0.8 -0.7
v 0 0.7 -0.7
v 0 0.8 -0.7
v 0.1 0.6 -0.7
v 0.1 0.8 -0.7
v 0.2 0.6 -0.7
v 0.2 0.8 -0.7
v -0.3 0.6 -0.9
v -0.3 0.8 -0.9
v -0.2 0.5 -0.9
v -0.2 0.6 -0.9
v -0.2 0.8 -0.9
v -0.2 0.9 -0.9
v -0.1 0.4 -0.9
v -0.1 0.5 -0.9
v -0.1 0.6 -0.9
v -0.1 0.8 -0.9
v -0.1 0.9 -0.9
v -0.1 1 -0.9
v 0.2 0.4 -0.9
v 0.2 0.5 -0.9
v 0.2 0.6 -0.9
v 0.2 0.8 -0.9
v 0.2 0.9 -0.9
v 0.2 1 -0.9
v 0.3 0.5 -0.9
v 0.3 0.6 -0.9
v 0.3 0.8 -0.9
v 0.3 0.9 -0.9
v 0.4 0.6 -0.9
v 0.4 0.8 -0.9
v -0.2 0.6 -1
v -0.2 0.7 -1
v -0.2 0.8 -1
v -0.1 0.5 -1
v -0.1 0.6 -1
v -0.1 0.7 -1
v -0.1 0.8 -1
v -0.1 0.9 -1
v 0 0.5 -1
v 0 0.6 -1
v 0 0.7 -1
v 0 0.8 -1
v 0 0.9 -1
v 0.1 0.5 -1
v 0.1 0.6 -1
v 0.1 0.7 -1
v 0.1 0.8 -1
v 0.1 0.9 -1
v 0.2 0.5 -1
v 0.2 0.6 -1
v 0.2 0.7 -1
v 0.2 0.8 -1
v 0.2 0.9 -1
v 0.3 0.6 -1
v 0.3 0.7 -1
v 0.3 0.8 -1
v -0.2 0.6 -0.4
v -0.2 0.8 -0.4
v -0.1 0.5 -0.4
v -0.1 0.6 -0.4
v -0.1 0.8 -0.4
v -0.1 0.9 -0.4
v 0.2 0.5 -0.4
v 0.2 0.6 -0.4
v 0.2 0.8 -0.4
v 0.2 0.9 -0.4
v 0.3 0.6 -0.4
v 0.3 0.8 -0.4
v -0.3 0.6 -0.6
v -0.3 0.8 -0.6
v -0.2 0.5 -0.6
v -0.2 0.6 -0.6
v -0.2 0.8 -0.6
v -0.2 0.9 -0.6
v -0.1 0.4 -0.6
v -0.1 0.5 -0.6
v -0.1 0.6 -0.6
v -0.1 0.8 -0.6
v -0.1 0.9 -0.6
v -0.1 1 -0.6
v 0.2 0.4 -0.6
v 0.2 0.5 -0.6
v 0.2 0.6 -0.6
v 0.2 0.8 -0.6
v 0.2 0.9 -0.6
v 0.2 1 -0.6
v 0.3 0.5 -0.6
v 0.3 0.6 -0.6
v 0.3 0.8 -0.6
v 0.3 0.9 -0.6
v 0.4 0.6 -0.6
v 0.4 0.8 -0.6
v -0.1 0.7 -0.8
v -0.1 0.8 -0.8
v 0 0.7 -0.8
v 0 0.8 -0.8
v 0.1 0.6 -0.8
v 0.1 0.8 -0.8
v 0.2 0.6 -0.8
v 0.2 0.8 -0.8
v -0.2 0.6 -0.9
v -0.2 0.8 -0.9
v -0.1 0.5 -0.9
v -0.1 0.6 -0.9
v -0.1 0.8 -0.9
v -0.1 0.9 -0.9
v 0.2 0.5 -0.9
v 0.2 0.6 -0.9
v 0.2 0.8 -0.9
v 0.2 0.9 -0.9
v 0.3 0.6 -0.9
v 0.3 0.8 -0.9
v -0.3 0.6 -1.1
v -0.3 0.8 -1.1
v -0.2 0.5 -1.1
v -0.2 0.6 -1.1
v -0.2 0.7 -1.1
v -0.2 0.8 -1.1
v -0.2 0.9 -1.1
v -0.1 0.4 -1.1
v -0.1 0.5 -1.1
v -0.1 0.6 -1.1
v -0.1 0.7 -1.1
v -0.1 0.8 -1.1
v -0.1 0.9 -1.1
v -0.1 1 -1.1
v 0 0.5 -1.1
v 0 0.6 -1.1
v 0 0.7 -1.1
v 0 0.8 -1.1
v 0 0.9 -1.1
v 0.1 0.5 -1.1
v 0.1 0.6 -1.1
v 0.1 0.7 -1.1
v 0.1 0.8 -1.1
v 0.1 0.9 -1.1
v 0.2 0.4 -1.1
v 0.2 0.5 -1.1
v 0.2 0.6 -1.1
v 0.2 0.7 -1.1
v 0.2 0.8 -1.1
v 0.2 0.9 -1.1
v 0.2 1 -1.1
v 0.3 0.5 -1.1
v 0.3 0.6 -1.1
v 0.3 0.7 -1.1
v 0.3 0.8 -1.1
v 0.3 0.9 -1.1
v 0.4 0.6 -1.1
v 0.4 0.8 -1.1
v -0.1 0.4 -0.3
v 0.2 0.4 -0.3
v -0.1 0.4 -0.6
v 0.2 0.4 -0.6
v -0.1 0.4 -0.9
v 0.2 0.4 -0.9
v -0.1 0.4 -1.1
v 0.2 0.4 -1.1
v -0.2 0.5 -0.3
v -0.1 0.5 -0.3
v 0.2 0.5 -0.3
v 0.3 0.5 -0.3
v -0.2 0.5 -0.6
v -0.1 0.5 -0.6
v 0.2 0.5 -0.6
v 0.3 0.5 -0.6
v -0.2 0.5 -0.9
v -0.1 0.5 -0.9
v 0.2 0.5 -0.9
v 0.3 0.5 -0.9
v -0.2 0.5 -1.1
v -0.1 0.5 -1.1
v 0.2 0.5 -1.1
v 0.3 0.5 -1.1
v -0.3 0.6 -0.3
v -0.2 0.6 -0.3
v 0.3 0.6 -0.3
v 0.4 0.6 -0.3
v -0.3 0.6 -0.6
v -0.2 0.6 -0.6
v -0.1 0.6 -0.6
v 0.2 0.6 -0.6
v 0.3 0.6 -0.6
v 0.4 0.6 -0.6
v -0.3 0.6 -0.9
v -0.2 0.6 -0.9
v -0.1 0.6 -0.9
v 0.2 0.6 -0.9
v 0.3 0.6 -0.9
v 0.4 0.6 -0.9
v -0.3 0.6 -1.1
v -0.2 0.6 -1.1
v 0.3 0.6 -1.1
v 0.4 0.6 -1.1
v -0.1 0.7 -0.7
v 0 0.7 -0.7
v -0.1 0.7 -0.8
v 0 0.7 -0.8
v -0.2 0.8 -0.4
v -0.1 0.8 -0.4
v 0.2 0.8 -0.4
v 0.3 0.8 -0.4
v -0.2 0.8 -0.6
v -0.1 0.8 -0.6
v 0.2 0.8 -0.6
v 0.3 0.8 -0.6
v -0.1 0.8 -0.7
v 0 0.8 -0.7
v 0.1 0.8 -0.7
v 0.2 0.8 -0.7
v -0.1 0.8 -0.8
v 0 0.8 -0.8
v 0.1 0.8 -0.8
v 0.2 0.8 -0.8
v -0.2 0.8 -0.9
v -0.1 0.8 -0.9
v 0.2 0.8 -0.9
v 0.3 0.8 -0.9
v -0.2 0.8 -1
v -0.1 0.8 -1
v 0.2 0.8 -1
v 0.3 0.8 -1
v -0.1 0.9 -0.4
v 0.2 0.9 -0.4
v -0.1 0.9 -0.6
v 0.2 0.9 -0.6
v -0.1 0.9 -0.9
v 0.2 0.9 -0.9
v -0.1 0.9 -1
v 0 0.9 -1
v 0.1 0.9 -1
v 0.2 0.9 -1
v -0.1 0.5 -0.4
v 0.2 0.5 -0.4
v -0.1 0.5 -0.6
v 0.2 0.5 -0.6
v -0.1 0.5 -0.9
v 0.2 0.5 -0.9
v -0.1 0.5 -1
v 0 0.5 -1
v 0.1 0.5 -1
v 0.2 0.5 -1
v -0.2 0.6 -0.4
v -0.1 0.6 -0.4
v 0.2 0.6 -0.4
v 0.3 0.6 -0.4
v -0.2 0.6 -0.6
v -0.1 0.6 -0.6
v 0.2 0.6 -0.6
v 0.3 0.6 -0.6
v 0.1 0.6 -0.7
v 0.2 0.6 -0.7
v 0.1 0.6 -0.8
v 0.2 0.6 -0.8
v -0.2 0.6 -0.9
v -0.1 0.6 -0.9
v 0.2 0.6 -0.9
v 0.3 0.6 -0.9
v -0.2 0.6 -1
v -0.1 0.6 -1
v 0.2 0.6 -1
v 0.3 0.6 -1
v -0.3 0.8 -0.3
v -0.2 0.8 -0.3
v 0.3 0.8 -0.3
v 0.4 0.8 -0.3
v -0.3 0.8 -0.6
v -0.2 0.8 -0.6
v -0.1 0.8 -0.6
v 0.2 0.8 -0.6
v 0.3 0.8 -0.6
v 0.4 0.8 -0.6
v -0.3 0.8 -0.9
v -0.2 0.8 -0.9
v -0.1 0.8 -0.9
v 0.2 0.8 -0.9
v 0.3 0.8 -0.9
v 0.4 0.8 -0.9
v -0.3 0.8 -1.1
v -0.2 0.8 -1.1
v 0.3 0.8 -1.1
v 0.4 0.8 -1.1
v -0.2 0.9 -0.3
v -0.1 0.9 -0.3
v 0.2 0.9 -0.3
v 0.3 0.9 -0.3
v -0.2 0.9 -0.6
v -0.1 0.9 -0.6
v 0.2 0.9 -0.6
v 0.3 0.9 -0.6
v -0.2 0.9 -0.9
v -0.1 0.9 -0.9
v 0.2 0.9 -0.9
v 0.3 0.9 -0.9
v -0.2 0.9 -1.1
v -0.1 0.9 -1.1
v 0.2 0.9 -1.1
v 0.3 0.9 -1.1
v -0.1 1 -0.3
v 0.2 1 -0.3
v -0.1 1 -0.6
v 0.2 1 -0.6
v -0.1 1 -0.9
v 0.2 1 -0.9
v -0.1 1 -1.1
v 0.2 1 -1.1

# faces
f 5/5/1 2/5/1 1/5/1
f 6/5/1 2/5/1 5/5/1
f 7/5/1 4/5/1 3/5/1
f 8/5/1 4/5/1 7/5/1
f 13/5/1 10/5/1 9/5/1
f 14/5/1 10/5/1 13/5/1
f 15/5/1 12/5/1 11/5/1
f 16/5/1 12/5/1 15/5/1
f 18/5/1 15/5/1 14/5/1
f 19/5/1 15/5/1 18/5/1
f 21/5/1 18/5/1 17/5/1
f 22/5/1 18/5/1 21/5/1
f 23/5/1 20/5/1 19/5/1
f 24/5/1 20/5/1 23/5/1
f 29/5/1 26/5/1 25/5/1
f 30/5/1 26/5/1 29/5/1
f 31/5/1 28/5/1 27/5/1
f 32/5/1 28/5/1 31/5/1
f 33/5/1 31/5/1 30/5/1
f 34/5/1 31/5/1 33/5/1
f 38/5/1 36/5/1 35/5/1
f 39/5/1 36/5/1 38/5/1
f 41/5/1 38/5/1 37/5/1
f 42/5/1 38/5/1 41/5/1
f 43/5/1 40/5/1 39/5/1
f 44/5/1 40/5/1 43/5/1
f 47/5/1 46/5/1 45/5/1
f 48/5/1 46/5/1 47/5/1
f 53/5/1 50/5/1 49/5/1
f 54/5/1 50/5/1 53/5/1
f 57/5/1 52/5/1 51/5/1
f 58/5/1 52/5/1 57/5/1
f 60/5/1 55/5/1 54/5/1
f 61/5/1 55/5/1 60/5/1
f 62/5/1 57/5/1 56/5/1
f 63/5/1 57/5/1 62/5/1
f 65/5/1 60/5/1 59/5/1
f 66/5/1 60/5/1 65/5/1
f 67/5/1 64/5/1 63/5/1
f 68/5/1 64/5/1 67/5/1
f 73/5/1 72/5/1 71/5/1
f 74/5/1 70/5/1 69/5/1
f 75/5/1 70/5/1 74/5/1
f 76/5/1 73/5/1 71/5/1
f 77/5/1 73/5/1 76/5/1
f 80/5/2 81/5/2 82/5/2
f 78/5/2 79/5/2 83/5/2
f 83/5/2 79/5/2 84/5/2
f 80/5/2 82/5/2 85/5/2
f 85/5/2 82/5/2 86/5/2
f 87/5/2 88/5/2 91/5/2
f 91/5/2 88/5/2 92/5/2
f 89/5/2 90/5/2 93/5/2
f 93/5/2 90/5/2 94/5/2
f 92/5/2 93/5/2 95/5/2
f 95/5/2 93/5/2 96/5/2
f 92/5/2 95/5/2 98/5/2
f 98/5/2 95/5/2 99/5/2
f 96/5/2 93/5/2 100/5/2
f 100/5/2 93/5/2 101/5/2
f 97/5/2 98/5/2 103/5/2
f 103/5/2 98/5/2 104/5/2
f 101/5/2 102/5/2 105/5/2
f 105/5/2 102/5/2 106/5/2
f 107/5/2 108/5/2 109/5/2
f 109/5/2 108/5/2 110/5/2
f 111/5/2 112/5/2 115/5/2
f 115/5/2 112/5/2 116/5/2
f 113/5/2 114/5/2 117/5/2
f 117/5/2 114/5/2 118/5/2
f 116/5/2 117/5/2 119/5/2
f 119/5/2 117/5/2 120/5/2
f 121/5/2 122/5/2 124/5/2
f 124/5/2 122/5/2 125/5/2
f 123/5/2 124/5/2 127/5/2
f 127/5/2 124/5/2 128/5/2
f 125/5/2 126/5/2 129/5/2
f 129/5/2 126/5/2 130/5/2
f 131/5/2 132/5/2 135/5/2
f 135/5/2 132/5/2 136/5/2
f 133/5/2 134/5/2 137/5/2
f 137/5/2 134/5/2 138/5/2
f 136/5/2 137/5/2 140/5/2
f 140/5/2 137/5/2 141/5/2
f 139/5/2 140/5/2 143/5/2
f 143/5/2 140/5/2 144/5/2
f 141/5/2 142/5/2 145/5/2
f 145/5/2 142/5/2 146/5/2
f 147/5/2 148/5/2 151/5/2
f 151/5/2 148/5/2 152/5/2
f 149/5/2 150/5/2 153/5/2
f 153/5/2 150/5/2 154/5/2
f 158/5/3 156/5/3 155/5/3
f 159/5/3 156/5/3 158/5/3
f 162/5/3 158/5/3 157/5/3
f 162/5/3 160/5/3 159/5/3
f 162/5/3 159/5/3 158/5/3
f 163/5/3 160/5/3 162/5/3
f 165/5/3 162/5/3 161/5/3
f 165/5/3 164/5/3 163/5/3
f 165/5/3 163/5/3 162/5/3
f 166/5/3 164/5/3 165/5/3
f 167/5/3 164/5/3 166/5/3
f 168/5/3 164/5/3 167/5/3
f 169/5/3 167/5/3 166/5/3
f 170/5/3 167/5/3 169/5/3
f 171/5/3 167/5/3 170/5/3
f 172/5/3 167/5/3 171/5/3
f 173/5/3 171/5/3 170/5/3
f 174/5/3 171/5/3 173/5/3
f 178/5/3 176/5/3 175/5/3
f 179/5/3 176/5/3 178/5/3
f 181/5/3 178/5/3 177/5/3
f 182/5/3 178/5/3 181/5/3
f 183/5/3 180/5/3 179/5/3
f 184/5/3 180/5/3 183/5/3
f 185/5/3 183/5/3 182/5/3
f 186/5/3 183/5/3 185/5/3
f 189/5/3 188/5/3 187/5/3
f 190/5/3 188/5/3 189/5/3
f 193/5/3 192/5/3 191/5/3
f 194/5/3 192/5/3 193/5/3
f 198/5/3 196/5/3 195/5/3
f 199/5/3 196/5/3 198/5/3
f 202/5/3 198/5/3 197/5/3
f 203/5/3 198/5/3 202/5/3
f 204/5/3 200/5/3 199/5/3
f 205/5/3 200/5/3 204/5/3
f 207/5/3 202/5/3 201/5/3
f 208/5/3 202/5/3 207/5/3
f 211/5/3 206/5/3 205/5/3
f 212/5/3 206/5/3 211/5/3
f 213/5/3 209/5/3 208/5/3
f 214/5/3 209/5/3 213/5/3
f 215/5/3 211/5/3 210/5/3
f 216/5/3 211/5/3 215/5/3
f 217/5/3 215/5/3 214/5/3
f 218/5/3 215/5/3 217/5/3
f 223/1/3 220/1/3 219/1/3
f 224/4/3 221/4/3 220/4/3
f 224/1/3 220/1/3 223/1/3
f 225/4/3 221/4/3 224/4/3
f 227/3/3 223/3/3 222/3/3
f 228/4/3 224/4/3 223/4/3
f 228/3/3 223/3/3 227/3/3
f 229/1/3 225/1/3 224/1/3
f 229/4/3 224/4/3 228/4/3
f 230/3/3 226/3/3 225/3/3
f 230/1/3 225/1/3 229/1/3
f 231/3/3 226/3/3 230/3/3
f 232/4/3 228/4/3 227/4/3
f 233/2/3 229/2/3 228/2/3
f 233/4/3 228/4/3 232/4/3
f 234/4/3 230/4/3 229/4/3
f 234/2/3 229/2/3 233/2/3
f 234/4/3 231/4/3 230/4/3
f 235/4/3 231/4/3 234/4/3
f 236/4/3 231/4/3 235/4/3
f 237/3/3 233/3/3 232/3/3
f 238/1/3 234/1/3 233/1/3
f 238/3/3 233/3/3 237/3/3
f 239/4/3 235/4/3 234/4/3
f 239/1/3 234/1/3 238/1/3
f 240/3/3 236/3/3 235/3/3
f 240/4/3 235/4/3 239/4/3
f 241/3/3 236/3/3 240/3/3
f 242/4/3 239/4/3 238/4/3
f 243/1/3 240/1/3 239/1/3
f 243/4/3 239/4/3 242/4/3
f 244/1/3 240/1/3 243/1/3
f 245/5/4 246/5/4 248/5/4
f 248/5/4 246/5/4 249/5/4
f 247/5/4 248/5/4 251/5/4
f 249/5/4 250/5/4 251/5/4
f 248/5/4 249/5/4 251/5/4
f 251/5/4 250/5/4 252/5/4
f 252/5/4 250/5/4 253/5/4
f 253/5/4 250/5/4 254/5/4
f 252/5/4 253/5/4 255/5/4
f 255/5/4 253/5/4 256/5/4
f 257/5/4 258/5/4 260/5/4
f 260/5/4 258/5/4 261/5/4
f 259/5/4 260/5/4 264/5/4
f 264/5/4 260/5/4 265/5/4
f 261/5/4 262/5/4 266/5/4
f 266/5/4 262/5/4 267/5/4
f 263/5/4 264/5/4 269/5/4
f 269/5/4 264/5/4 270/5/4
f 267/5/4 268/5/4 273/5/4
f 273/5/4 268/5/4 274/5/4
f 270/5/4 271/5/4 275/5/4
f 275/5/4 271/5/4 276/5/4
f 272/5/4 273/5/4 277/5/4
f 277/5/4 273/5/4 278/5/4
f 276/5/4 277/5/4 279/5/4
f 279/5/4 277/5/4 280/5/4
f 281/5/4 282/5/4 283/5/4
f 283/5/4 282/5/4 284/5/4
f 285/5/4 286/5/4 287/5/4
f 287/5/4 286/5/4 288/5/4
f 289/5/4 290/5/4 292/5/4
f 292/5/4 290/5/4 293/5/4
f 291/5/4 292/5/4 295/5/4
f 295/5/4 292/5/4 296/5/4
f 293/5/4 294/5/4 297/5/4
f 297/5/4 294/5/4 298/5/4
f 296/5/4 297/5/4 299/5/4
f 299/5/4 297/5/4 300/5/4
f 301/5/4 302/5/4 304/5/4
f 304/5/4 302/5/4 305/5/4
f 305/5/4 302/5/4 306/5/4
f 303/5/4 304/5/4 309/5/4
f 304/1/4 305/1/4 310/1/4
f 309/5/4 304/5/4 310/5/4
f 305/4/4 306/4/4 311/4/4
f 310/1/4 305/1/4 311/1/4
f 306/5/4 307/5/4 312/5/4
f 311/4/4 306/4/4 312/4/4
f 312/5/4 307/5/4 313/5/4
f 308/5/4 309/5/4 315/5/4
f 309/3/4 310/3/4 315/3/4
f 310/4/4 311/4/4 316/4/4
f 315/3/4 310/3/4 316/3/4
f 311/1/4 312/1/4 317/1/4
f 316/4/4 311/4/4 317/4/4
f 312/3/4 313/3/4 318/3/4
f 317/1/4 312/1/4 318/1/4
f 313/5/4 314/5/4 319/5/4
f 318/3/4 313/3/4 319/3/4
f 308/5/4 315/5/4 320/5/4
f 315/4/4 316/4/4 320/4/4
f 316/2/4 317/2/4 321/2/4
f 320/4/4 316/4/4 321/4/4
f 317/4/4 318/4/4 322/4/4
f 321/2/4 317/2/4 322/2/4
f 318/4/4 319/4/4 322/4/4
f 322/4/4 319/4/4 323/4/4
f 319/5/4 314/5/4 324/5/4
f 323/4/4 319/4/4 324/4/4
f 308/5/4 320/5/4 325/5/4
f 320/3/4 321/3/4 326/3/4
f 325/5/4 320/5/4 326/5/4
f 321/1/4 322/1/4 327/1/4
f 326/3/4 321/3/4 327/3/4
f 322/4/4 323/4/4 328/4/4
f 327/1/4 322/1/4 328/1/4
f 323/3/4 324/3/4 329/3/4
f 328/4/4 323/4/4 329/4/4
f 324/5/4 314/5/4 330/5/4
f 329/3/4 324/3/4 330/3/4
f 330/5/4 314/5/4 331/5/4
f 326/5/4 327/5/4 332/5/4
f 327/4/4 328/4/4 333/4/4
f 332/5/4 327/5/4 333/5/4
f 328/1/4 329/1/4 334/1/4
f 333/4/4 328/4/4 334/4/4
f 329/5/4 330/5/4 335/5/4
f 334/1/4 329/1/4 335/1/4
f 335/5/4 330/5/4 336/5/4
f 333/5/4 334/5/4 337/5/4
f 334/5/4 335/5/4 337/5/4
f 337/5/4 335/5/4 338/5/4
f 341/5/5 340/5/5 339/5/5
f 342/5/5 340/5/5 341/5/5
f 345/5/5 344/5/5 343/5/5
f 346/5/5 344/5/5 345/5/5
f 351/5/5 348/5/5 347/5/5
f 352/5/5 348/5/5 351/5/5
f 353/5/5 350/5/5 349/5/5
f 354/5/5 350/5/5 353/5/5
f 356/5/5 353/5/5 352/5/5
f 357/5/5 353/5/5 356/5/5
f 359/5/5 356/5/5 355/5/5
f 360/5/5 356/5/5 359/5/5
f 361/5/5 358/5/5 357/5/5
f 362/5/5 358/5/5 361/5/5
f 367/5/5 364/5/5 363/5/5
f 368/5/5 364/5/5 367/5/5
f 371/5/5 366/5/5 365/5/5
f 372/5/5 366/5/5 371/5/5
f 374/5/5 369/5/5 368/5/5
f 375/5/5 369/5/5 374/5/5
f 376/5/5 371/5/5 370/5/5
f 377/5/5 371/5/5 376/5/5
f 379/5/5 374/5/5 373/5/5
f 380/5/5 374/5/5 379/5/5
f 381/5/5 378/5/5 377/5/5
f 382/5/5 378/5/5 381/5/5
f 385/5/5 384/5/5 383/5/5
f 386/5/5 384/5/5 385/5/5
f 391/5/5 388/5/5 387/5/5
f 392/5/5 388/5/5 391/5/5
f 393/5/5 390/5/5 389/5/5
f 394/5/5 390/5/5 393/5/5
f 395/5/5 393/5/5 392/5/5
f 396/5/5 393/5/5 395/5/5
f 397/5/5 393/5/5 396/5/5
f 398/5/5 393/5/5 397/5/5
f 400/5/5 397/5/5 396/5/5
f 401/5/5 397/5/5 400/5/5
f 404/5/5 400/5/5 399/5/5
f 404/5/5 402/5/5 401/5/5
f 404/5/5 401/5/5 400/5/5
f 405/5/5 402/5/5 404/5/5
f 407/5/5 404/5/5 403/5/5
f 408/5/5 404/5/5 407/5/5
f 409/5/5 406/5/5 405/5/5
f 410/5/5 406/5/5 409/5/5
f 413/5/5 412/5/5 411/5/5
f 414/5/5 412/5/5 413/5/5
f 417/5/5 416/5/5 415/5/5
f 418/5/5 416/5/5 417/5/5
f 419/5/5 416/5/5 418/5/5
f 420/5/5 416/5/5 419/5/5
f 421/5/6 422/5/6 423/5/6
f 423/5/6 422/5/6 424/5/6
f 425/5/6 426/5/6 427/5/6
f 427/5/6 426/5/6 428/5/6
f 428/5/6 426/5/6 429/5/6
f 429/5/6 426/5/6 430/5/6
f 431/5/6 432/5/6 435/5/6
f 435/5/6 432/5/6 436/5/6
f 433/5/6 434/5/6 437/5/6
f 437/5/6 434/5/6 438/5/6
f 436/5/6 437/5/6 439/5/6
f 439/5/6 437/5/6 440/5/6
f 436/5/6 439/5/6 441/5/6
f 436/5/6 441/5/6 444/5/6
f 441/5/6 442/5/6 444/5/6
f 444/5/6 442/5/6 445/5/6
f 443/5/6 444/5/6 447/5/6
f 447/5/6 444/5/6 448/5/6
f 445/5/6 446/5/6 449/5/6
f 449/5/6 446/5/6 450/5/6
f 451/5/6 452/5/6 455/5/6
f 455/5/6 452/5/6 456/5/6
f 453/5/6 454/5/6 459/5/6
f 459/5/6 454/5/6 460/5/6
f 456/5/6 457/5/6 462/5/6
f 462/5/6 457/5/6 463/5/6
f 458/5/6 459/5/6 464/5/6
f 464/5/6 459/5/6 465/5/6
f 461/5/6 462/5/6 467/5/6
f 467/5/6 462/5/6 468/5/6
f 465/5/6 466/5/6 469/5/6
f 469/5/6 466/5/6 470/5/6
f 471/5/6 472/5/6 475/5/6
f 475/5/6 472/5/6 476/5/6
f 473/5/6 474/5/6 477/5/6
f 477/5/6 474/5/6 478/5/6
f 476/5/6 477/5/6 480/5/6
f 480/5/6 477/5/6 481/5/6
f 479/5/6 480/5/6 483/5/6
f 483/5/6 480/5/6 484/5/6
f 481/5/6 482/5/6 485/5/6
f 485/5/6 482/5/6 486/5/6
f 487/5/6 488/5/6 489/5/6
f 489/5/6 488/5/6 490/5/6
f 491/5/6 492/5/6 493/5/6
f 493/5/6 492/5/6 494/5/6
